<svg xmlns="http://www.w3.org/2000/svg" width="136" height="136" viewBox="0 0 136 136"><g transform="translate(-516 -270)"><g transform="translate(516 270)" fill="rgba(0,0,0,0.02)" stroke="rgba(0,0,0,0.09)" stroke-linecap="square" stroke-linejoin="round" stroke-width="2" stroke-dasharray="12 6"><rect width="136" height="136" rx="2" stroke="none"/><rect x="1" y="1" width="134" height="134" rx="1" fill="none"/></g><g transform="translate(564 318)"><path d="M0,0H40V40H0Z" fill="rgba(0,0,0,0)"/><path d="M30.19,34.476H5.524V9.81H21.381V6.286H5.524A3.534,3.534,0,0,0,2,9.81V34.476A3.534,3.534,0,0,0,5.524,38H30.19a3.534,3.534,0,0,0,3.524-3.524V18.619H30.19ZM16.465,28.891l-3.453-4.158-4.845,6.22H27.548l-6.237-8.3ZM33.714,6.286V1H30.19V6.286H24.9c.018.018,0,3.524,0,3.524H30.19v5.268c.018.018,3.524,0,3.524,0V9.81H39V6.286Z" transform="translate(0 0)" fill="rgba(54,64,70,0.28)"/></g></g></svg>