<svg xmlns="http://www.w3.org/2000/svg" width="80" height="80" viewBox="0 0 80 80"><g transform="translate(-745 -389)"><circle cx="40" cy="40" r="40" transform="translate(745 389)" fill="#fff"/><g transform="translate(431.65 -1377.181)"><g transform="translate(313.35 1766.181)"><path d="M67.79,84.811a4.121,4.121,0,0,0-.874.062,3.85,3.85,0,0,0-2.747,4.32,4.223,4.223,0,0,0,.8,1.848,3.469,3.469,0,0,0,4.919.712,3.9,3.9,0,0,0,1.5-3.808A3.639,3.639,0,0,0,67.79,84.811Z" transform="translate(-9.715 -46.183)" fill="#e12f20"/><path d="M51.364,88.061a3.156,3.156,0,0,1-.649.325c-.325.087-.649.162-.974.25-.524.15-1.074.2-1.586.375a1.759,1.759,0,0,0-1.2,1.186,2.461,2.461,0,0,0-.05,1.086,1.433,1.433,0,0,0,1.3,1.248,3.119,3.119,0,0,0,1.273-.1,2.55,2.55,0,0,0,1.96-2.035,7.936,7.936,0,0,0,.1-1.436v-.786C51.539,87.974,51.539,87.974,51.364,88.061Z" transform="translate(-13.928 -45.409)" fill="#e12f20"/><path d="M60.195,53.57C38.449,53.459,20.4,71.751,20.4,93.879c0,22.091,17.825,39.678,40.218,39.69a39.717,39.717,0,0,0,39.782-40.1A40.153,40.153,0,0,0,60.195,53.57ZM77.409,77.357c0-.136.037-.173.174-.173.846.012,1.705.012,2.552,0,.137,0,.174.037.174.173v8.49c0,.161-.05.2-.2.2q-1.27-.019-2.539,0c-.137,0-.162-.037-.162-.161ZM43.092,96.738a8.607,8.607,0,0,1-2.153,3.8,7.934,7.934,0,0,1-4.755,2.438,7.843,7.843,0,0,1-5.85-1.361,8.605,8.605,0,0,1-3.6-5.458,9.185,9.185,0,0,1,.286-4.988A8.8,8.8,0,0,1,31.889,85.9a7.371,7.371,0,0,1,2.738-.569,7.77,7.77,0,0,1,2.963.4,8.481,8.481,0,0,1,5.054,4.7,10.855,10.855,0,0,1,.436,1.213c.05.161,0,.186-.149.186-.51-.012-1.021,0-1.531,0H39.88a.26.26,0,0,1-.274-.161,5.138,5.138,0,0,0-3.05-2.71,4.854,4.854,0,0,0-5,1.1,5.1,5.1,0,0,0-1.668,2.76,5.643,5.643,0,0,0,.622,4.319,5.253,5.253,0,0,0,3.187,2.438,5.013,5.013,0,0,0,5.527-2.141,5.181,5.181,0,0,0,.423-.718.179.179,0,0,1,.2-.124h3.112C43.129,96.565,43.117,96.627,43.092,96.738Zm5.041-2.512h0v8.688c0,.272.025.235-.224.235H45.034c-.137,0-.162-.037-.162-.161V85.476c0-.136.05-.161.162-.161.958,0,1.929.012,2.888,0,.162,0,.212.037.212.21Q48.133,89.869,48.133,94.226Zm13.107,8.923c-.971-.012-1.954-.012-2.925,0-.149,0-.2-.05-.187-.2.012-.384,0-.78,0-1.213a5.128,5.128,0,0,1-1.855,1.04,6.894,6.894,0,0,1-2.838.334,3.48,3.48,0,0,1-2.925-1.856,4.382,4.382,0,0,1-.423-2.178,4.875,4.875,0,0,1,.4-1.931A3.622,3.622,0,0,1,52.639,95.2a12.711,12.711,0,0,1,2.714-.631c.6-.087,1.195-.173,1.78-.285a1.159,1.159,0,0,0,.909-.879,1.278,1.278,0,0,0-.61-1.423,3.39,3.39,0,0,0-1.817-.3,2.75,2.75,0,0,0-.946.2,1.981,1.981,0,0,0-.983,1.324c-.037.124-.012.285-.112.347s-.249.012-.373.012H50.573c-.237,0-.237,0-.212-.235a6.822,6.822,0,0,1,.373-1.658,3.98,3.98,0,0,1,2.975-2.6,8.74,8.74,0,0,1,5.664.421,3.239,3.239,0,0,1,1.967,2.537,6.832,6.832,0,0,1,.112,1.238v9.7C61.452,103.112,61.4,103.149,61.24,103.149Zm9.9-10.829a3.351,3.351,0,0,0-2.241.3,3.525,3.525,0,0,0-1.917,2.847,16.463,16.463,0,0,0-.062,1.918v5.582c0,.136-.025.186-.174.186-.958-.012-1.929-.012-2.888,0-.137,0-.187-.037-.187-.173,0-4.455.012-8.9,0-13.354,0-.136.037-.173.174-.173.934,0,1.88.05,2.813.062.124,0,.149.05.149.161v1.485c.012,0,.025.012.037.012.137-.173.286-.347.423-.52a4.912,4.912,0,0,1,2.826-1.634,4.077,4.077,0,0,1,1.033-.136c.1,0,.124.037.124.124,0,1.052.05,2.1.037,3.168C71.3,92.3,71.285,92.345,71.136,92.32Zm13.107,7.562a6.864,6.864,0,0,1-4.431,3.205,8.394,8.394,0,0,1-1.369.05,4.882,4.882,0,0,1-2.651-.47,7.279,7.279,0,0,1-3.211-2.933,7.063,7.063,0,0,1-.946-4.394A7.146,7.146,0,0,1,75.356,89.6a5.575,5.575,0,0,1,2.539-.73,6.4,6.4,0,0,1,3.124.483,6.951,6.951,0,0,1,4.07,4.889A7.042,7.042,0,0,1,84.243,99.882ZM85.9,89.3c-.025-.025-.05-.037-.075-.062l-1.917-1.98c-.087-.1-.025-.136.025-.2,1.07-1.114,2.153-2.215,3.224-3.329l4.494-4.653c.1-.111.149-.111.261,0,.6.631,1.195,1.25,1.8,1.881.1.1.112.149,0,.26q-3.846,3.991-7.668,7.97C86,89.226,85.973,89.288,85.9,89.3Zm10.02,6.51h-8.39c-.137,0-.162-.037-.162-.161,0-.879.012-1.757,0-2.624,0-.149.037-.2.2-.2,1.382.012,2.776,0,4.157,0h4.17c.149,0,.187.037.174.186-.012.879,0,1.77,0,2.648C96.081,95.773,96.056,95.81,95.919,95.81Z" transform="translate(-20.4 -53.57)" fill="#e12f20"/></g></g></g></svg>