<svg xmlns="http://www.w3.org/2000/svg" width="195.913" height="63.341" viewBox="0 0 195.913 63.341"><g transform="translate(-494.186 -1796.315)"><g transform="translate(494.186 1796.315)"><path d="M216.876,128c0,1.8-.034,3.59.017,5.376.017.978-.32,1.23-1.3,1.2-9.657-.371-17.039-4.938-22.972-12.27-1.466-1.8-2.8-3.708-4.079-5.646-.708-1.079-.742-1.1-1.315.118a30.693,30.693,0,0,1-14.781,14.73,31.353,31.353,0,1,1-16.972-59.494A30.091,30.091,0,0,1,175.4,76.389a1.22,1.22,0,0,0,.32.185c.4.169.725.725,1.18.489s.219-.809.236-1.247c.034-.86.051-1.719,0-2.562-.051-.961.4-1.281,1.331-1.281q5.258.051,10.517,0c1.1-.017,1.4.455,1.382,1.466-.017,5.949.017,11.916-.017,17.865a5.54,5.54,0,0,0,.809,3c3.152,5.191,5.815,10.668,9.185,15.741a29.776,29.776,0,0,0,7.888,8.6,14.236,14.236,0,0,0,7.331,2.427c1.011.067,1.348.421,1.315,1.4C216.842,124.322,216.876,126.159,216.876,128Zm-57.792-6.826c9.236.017,17.949-7.112,18.017-18.489.051-10.348-9.522-17.579-18.135-17.461a17.975,17.975,0,0,0,.118,35.949Z" transform="translate(-127.697 -71.231)" fill="#d5d3d3"/><path d="M201.457,83.66c.067,2.225-.1,4.618.2,7.028.27,2.14.944,3,3.051,3.506.522.118.809.388.809.893q.025,1.9,0,3.792c-.017.539-.32.775-.86.809-2.562.169-4.9-.253-6.556-2.461-.421-.573-.691-.539-1.23-.084-3.708,3.219-7.938,3.421-12.253,1.669-4.331-1.77-6.371-5.343-6.556-9.91-.236-6.472,3.472-11.174,9.573-12.236a9.392,9.392,0,0,1,7.348,1.466c.758.556.961.354.927-.489-.034-.624.32-.876.91-.876,1.23,0,2.444.017,3.674,0,.758-.017.978.388.978,1.079C201.457,79.716,201.457,81.6,201.457,83.66Zm-5.747,4.466c-.017-3.674-2.36-6.118-5.848-6.1s-5.815,2.478-5.8,6.152a5.822,5.822,0,0,0,5.865,6.168C193.216,94.379,195.71,91.716,195.71,88.126Z" transform="translate(-93.183 -68.002)" fill="#d5d3d3"/><path d="M244.767,90.464h-7.213c-1.129,0-1.3.27-.792,1.315a4.954,4.954,0,0,0,2.764,2.461,8.947,8.947,0,0,0,8.107-.59c.758-.455,1.213-.421,1.753.253a26.168,26.168,0,0,0,2.039,2.275c.775.742.489,1.213-.236,1.736a12.768,12.768,0,0,1-6.624,2.275c-4.264.32-8.225-.438-11.343-3.674-4.045-4.23-3.994-12.05.084-16.466A12.2,12.2,0,0,1,249.351,78.8c3.438,2.781,4.214,6.607,3.944,10.786-.051.758-.539.893-1.18.893C249.671,90.447,247.227,90.464,244.767,90.464Zm-2.865-4.82c1.416,0,2.848-.051,4.264.017,1.112.051,1.146-.421.742-1.23a5.109,5.109,0,0,0-5.208-2.865,5.245,5.245,0,0,0-4.938,3.135c-.286.708-.118.961.64.944C238.9,85.627,240.4,85.644,241.9,85.644Z" transform="translate(-57.431 -68.081)" fill="#d5d3d3"/><path d="M230.295,100.246c-6.135,0-10.6-3.135-12.017-8.444a12.119,12.119,0,0,1,4.7-13.4,13.449,13.449,0,0,1,14.663.253c1.23.91,1.23,1.045.1,2.073-.725.657-1.483,1.281-2.157,1.989-.607.657-1.1.674-1.888.185-4.213-2.545-9.219-.287-9.758,4.4-.27,2.393.253,4.6,2.309,6.1a7.086,7.086,0,0,0,7.433.556c1.736-.758,1.719-.792,3.017.691a15.078,15.078,0,0,0,1.416,1.517c.826.742.59,1.23-.2,1.82A12.836,12.836,0,0,1,230.295,100.246Z" transform="translate(-65.931 -68.088)" fill="#d5d3d3"/><path d="M207.117,73.461c3.034,0,3.017,0,3.034,3.067.017,2.6-.32,2.326,2.36,2.343,2.444.017,2.444,0,2.444,2.494-.017,3.3.3,2.933-2.949,2.949-1.854.017-1.871,0-1.837,1.9a47.841,47.841,0,0,0,.2,6.59c.354,2.292,1.382,3.354,3.657,3.455.961.051,1.3.421,1.247,1.348-.051,1.011-.034,2.039,0,3.051.017.758-.286,1.079-1.062,1.146-4.921.455-8.966-1.955-9.843-7.736a55.133,55.133,0,0,1-.219-8.174c0-1.1-.2-1.736-1.466-1.6-.893.1-1.23-.4-1.213-1.264q.051-1.466,0-2.933c-.034-.876.32-1.331,1.23-1.23,1.146.152,1.534-.354,1.449-1.466-.084-.893.017-1.787-.017-2.7-.051-.961.354-1.348,1.3-1.264C205.971,73.5,206.544,73.461,207.117,73.461Z" transform="translate(-77.135 -70.089)" fill="#d5d3d3"/><path d="M201.69,83.456c0,3.3-.051,6.607.017,9.91.051,2.6.725,3.388,3.253,4.079a.849.849,0,0,1,.691.978c0,1.18-.017,2.36,0,3.556.017.674-.3.893-.944.994A7.633,7.633,0,0,1,196.23,97.5a17.834,17.834,0,0,1-.725-5.073q-.025-9.48,0-18.977c0-1.567.1-1.669,1.652-1.685.978-.017,1.955.051,2.933-.017,1.163-.067,1.6.371,1.584,1.551-.051,3.388-.017,6.775-.017,10.163Z" transform="translate(-81.231 -71.253)" fill="#d5d3d3"/><path d="M217.546,84.279c0,2.039-.067,4.079.017,6.118.084,2.258.944,3.219,3.118,3.674a.885.885,0,0,1,.826.994c-.017,1.18-.017,2.36,0,3.556.017.674-.32.927-.961.994a7.656,7.656,0,0,1-8.477-5.461,18.257,18.257,0,0,1-.725-4.955c-.051-3.708,0-7.433-.034-11.14-.017-1.045.337-1.5,1.416-1.416.927.067,1.871.017,2.815.017,1.938,0,1.938,0,1.938,2.006V84.3A.128.128,0,0,1,217.546,84.279Z" transform="translate(-70.39 -67.896)" fill="#d5d3d3"/><path d="M217.943,74.939a3.422,3.422,0,1,1-3.371-3.489A3.518,3.518,0,0,1,217.943,74.939Z" transform="translate(-70.534 -71.449)" fill="#d5d3d3"/></g></g></svg>
