<svg xmlns="http://www.w3.org/2000/svg" xmlns:xlink="http://www.w3.org/1999/xlink" width="96.925" height="96.914" viewBox="0 0 96.925 96.914"><defs><radialGradient id="a" cx="0.5" cy="0.5" r="0.5" gradientTransform="translate(0)" gradientUnits="objectBoundingBox"><stop offset="0.165" stop-color="#e42917"/><stop offset="0.751" stop-color="#c51618"/></radialGradient></defs><path d="M342.18,57.11a45.821,45.821,0,0,1,32.49,14.35,47.658,47.658,0,0,1,13.98,37.59c-1.39,22.92-21.66,46.99-52.19,44.84a46.106,46.106,0,0,1-30.18-13.85c-10.63-10.67-15.53-23.64-14.25-38.63.99-11.54,5.42-21.84,13.79-29.98C315.36,62.14,326.84,57.08,342.18,57.11Zm-1.66,12.85a36.026,36.026,0,0,0-18.3,4.97c-2,1.15-2.01,1.37-.37,3.01.06.06.12.11.17.17q10.53,10.575,21.08,21.15,12.54,12.57,25.1,25.12c1.1,1.09,1.66,1.03,2.41-.29,3.87-6.84,5.99-14.09,5.11-22.04a36.772,36.772,0,0,0-10.47-21.87C358.37,73.02,349.6,70.28,340.52,69.96Zm-35.86,38.43c.13,7.23,4.01,15.8,11.04,22.9,6.84,6.9,15.49,9.68,25.02,9.82a33.567,33.567,0,0,0,17.98-5.15c1.55-.93,1.59-1.27.28-2.58q-16.575-16.59-33.14-33.18-6.735-6.75-13.49-13.48c-1.13-1.12-1.56-1.11-2.22.04C306.78,92.56,304.65,98.72,304.66,108.39Z" transform="translate(-291.831 -57.11)" fill="url(#a)"/></svg>
