<svg xmlns="http://www.w3.org/2000/svg" xmlns:xlink="http://www.w3.org/1999/xlink" width="200" height="200" viewBox="0 0 200 200">
  <defs>
    <radialGradient id="radial-gradient" cx="0.5" cy="0.5" r="1.457" gradientTransform="translate(0.375) scale(0.25 1)" gradientUnits="objectBoundingBox">
      <stop offset="0.165" stop-color="#e42917"/>
      <stop offset="0.751" stop-color="#c51618"/>
    </radialGradient>
    <radialGradient id="radial-gradient-2" cx="0.5" cy="0.5" r="4.338" gradientTransform="translate(0.459) scale(0.082 1)" xlink:href="#radial-gradient"/>
    <radialGradient id="radial-gradient-3" cx="0.5" cy="0.5" r="4.48" gradientTransform="translate(0.464 0.016) scale(0.079 0.969)" xlink:href="#radial-gradient"/>
    <radialGradient id="radial-gradient-4" cx="0.5" cy="0.5" r="0.895" gradientTransform="translate(0.285) scale(0.43 1)" xlink:href="#radial-gradient"/>
  </defs>
  <g id="banco" transform="translate(-344 -4356)">
    <rect id="Rectángulo_34" data-name="Rectángulo 34" width="200" height="200" transform="translate(344 4356)" fill="none"/>
    <g id="banco-2" data-name="banco" transform="translate(374.769 4394.461)">
      <path id="Trazado_137" data-name="Trazado 137" d="M194.78,108.808c-12.435-4.712-24.852-9.49-37.273-14.239Q146.554,90.375,135.6,86.19a3.261,3.261,0,0,0-2.488-.043Q119.965,91.2,106.8,96.21q-8.479,3.236-16.968,6.472c-5.519,2.115-11.025,4.258-16.554,6.353a1.571,1.571,0,0,0-1.182,1.694c.029,1.23,0,2.465,0,3.695,0,2.384,0,2.384,2.336,2.384H193.722c.477,0,.953-.024,1.43,0,.991.043,1.358-.445,1.335-1.391a39.6,39.6,0,0,1,.019-4.12C196.62,109.924,196.057,109.29,194.78,108.808Z" transform="translate(-64.615 -85.921)" fill="url(#radial-gradient)"/>
      <path id="Trazado_138" data-name="Trazado 138" d="M130.171,154.618h63.006c3.031,0,3.031,0,3.031,2.98,0,2.039-.043,4.078.014,6.112.033,1.221-.4,1.613-1.663,1.613q-32.938-.057-65.871-.028H66.254c-2.216,0-2.2,0-2.2-2.138,0-2.37.048-4.74-.062-7.105-.052-1.164.324-1.462,1.449-1.462q32.366.043,64.727.019Z" transform="translate(-60.372 -120.2)" fill="url(#radial-gradient-2)"/>
      <path id="Trazado_139" data-name="Trazado 139" d="M126.174,308.858h66.433c3.2,0,3.2,0,3.2,3.042,0,2.081-.048,4.163.014,6.24.038,1.244-.419,1.651-1.754,1.646q-34.725-.057-69.45-.028H58.787c-2.336,0-2.321,0-2.316-2.181,0-2.417.048-4.839-.067-7.257-.057-1.187.343-1.495,1.53-1.49q34.125.043,68.245.019S126.174,308.854,126.174,308.858Z" transform="translate(-56.399 -196.709)" fill="url(#radial-gradient-3)"/>
      <path id="Trazado_140" data-name="Trazado 140" d="M196.042,235.326c0-2.252,0-2.256-2.326-2.256H182.153a3.5,3.5,0,0,1-.172-1.585q-.007-9.232,0-18.468,0-13.071,0-26.142c0-.941.062-1.632,1.339-1.651,2.76-.043,2.669-.1,2.826-2.914.081-1.457-.458-1.764-1.783-1.755-6.868.047-13.741.019-20.614.024-1.9,0-1.887.009-1.892,1.878,0,3.387-.091,2.81,2.693,2.763,1.263-.024,1.63.4,1.625,1.632q-.05,22.445,0,44.894a1.8,1.8,0,0,1-.372,1.325H150.81c-.219-.27-.238-.757-.238-1.679V209.364q0-11.155,0-22.31c0-1.045.1-1.831,1.511-1.84,2.745-.014,2.664-.08,2.817-2.872.076-1.4-.362-1.807-1.74-1.793-6.825.052-13.646.024-20.471.024-2.045,0-2.059.019-2.064,2.072-.01,2.569-.01,2.64,2.531,2.564,1.392-.043,1.806.445,1.792,1.793-.057,6.443-.024,12.882-.024,19.325q0,12.716.01,25.437a1.9,1.9,0,0,1-.3,1.3H119.752c-.224-.284-.238-.8-.238-1.769q-.007-11.013,0-22.031V186.8c0-.771-.057-1.509,1.1-1.589,1-.071,2.278.582,2.936-.416.562-.852-.048-2.029.081-3.065.114-.889-.367-1.168-1.187-1.164q-10.882.014-21.768,0c-.429,0-1.006-.024-1.12.435a6.337,6.337,0,0,0,.024,3.766c.305.814,1.363.426,2.088.44,2.007.047,2.007.019,2.007,2.072V231.2c0,1.017,0,1.556-.219,1.85H88.271a3.411,3.411,0,0,1-.167-1.566V209.312q0-11.3,0-22.6c0-.809-.01-1.452,1.144-1.509,3.346-.161,3.317-.2,3.165-3.529-.038-.79-.329-1.116-1.1-1.116q-11.025.007-22.054,0c-.434,0-1.015,0-1.044.516a31.613,31.613,0,0,0,.024,3.68c.019.378.462.43.8.445.477.019.953.014,1.43.019,1.968.009,1.973.009,1.973,1.992q.007,11.652,0,23.308,0,10.587,0,21.174a1.953,1.953,0,0,1-.319,1.348h-10.9c-.572,0-1.149.024-1.721,0-.953-.043-1.411.35-1.377,1.339.038,1.23.038,2.465,0,3.695-.033.993.439,1.377,1.382,1.329.381-.019.763,0,1.144,0H191.838C196.052,239.437,196.052,239.437,196.042,235.326Z" transform="translate(-57.303 -131.02)" fill="url(#radial-gradient-4)"/>
    </g>
  </g>
</svg>
