<svg xmlns="http://www.w3.org/2000/svg" width="183.398" height="117.356" viewBox="0 0 183.398 117.356"><g transform="translate(-306 -5200.07)"><g transform="translate(306 5200.07)"><path d="M67.83,18.91A41.7,41.7,0,0,1,86.486,48.228C89.153,68.38,84.821,75.21,84.821,75.21a37.239,37.239,0,0,0,20.822,0c11.163-3.331,13.491-13.329,10.993-20.985S103.139,22.9,67.83,18.91Z" transform="translate(-37.253 -18.91)" fill="#d5d3d3"/><path d="M26.409,87.452s2.335-19.99,17.16-30.482S65.888,45.313,65.888,45.313s-4-22.156-21.486-22.657-22.65,24.361-23.32,30.983C19.748,66.8,23.911,80.127,26.409,87.452Z" transform="translate(-20.825 -20.217)" fill="#d5d3d3"/><path d="M102.574,97.827s-16.822,25.649-44.143,26.319S34.577,105.886,36.5,99.33s8.437-13.16,8.437-13.16S61.931,111.819,102.574,97.827Z" transform="translate(-25.857 -42.418)" fill="#d5d3d3"/><g transform="translate(15.485 90.263)"><path d="M44.63,160.47H55.48c6,0,8.281,3.129,8.281,6.355a5.659,5.659,0,0,1-3.161,5.386,5.922,5.922,0,0,1,3.87,5.659c0,4.254-3.337,7.435-8.626,7.435H44.63Zm10.239,9.8c2.55,0,3.6-1.145,3.6-2.888,0-1.821-1.379-2.758-3.454-2.758H49.9v5.653h4.97Zm-4.963,10.9h4.846c2.9,0,4.215-1.216,4.215-3.467,0-2-1.294-3.279-4.248-3.279H49.906Z" transform="translate(-44.63 -158.649)" fill="#d5d3d3"/><path d="M81.57,160.47h5.373v9.686h9.992V160.47h5.373v24.842H96.935V174.56H86.943v10.753H81.57Z" transform="translate(-57.541 -158.649)" fill="#d5d3d3"/><path d="M122.61,160.47h9.848c7.234,0,11.963,4.768,11.963,12.112,0,7.247-4.586,12.73-12.19,12.73H122.61V160.47Zm5.373,20.5h4.027c4.762,0,6.869-3.545,6.869-8.378,0-4.059-1.971-7.78-6.837-7.78h-4.059Z" transform="translate(-71.884 -158.649)" fill="#d5d3d3"/><path d="M176.78,160.47h5.373v20.439h12.372l-.611,4.4H176.78Z" transform="translate(-90.817 -158.649)" fill="#d5d3d3"/><path d="M212.107,180.183c.007,2.335,1.171,4.612,3.747,4.612,2.147,0,2.765-.865,3.252-1.991h5.165c-.664,2.283-2.7,6.03-8.554,6.03-6.141,0-8.808-4.592-8.808-9.484,0-5.848,3.005-10.031,8.99-10.031,6.407,0,8.58,4.632,8.58,9.289a11.973,11.973,0,0,1-.065,1.574Zm7.2-3.174c-.039-2.173-.9-4-3.422-4-2.472,0-3.467,1.7-3.675,4Z" transform="translate(-101.348 -161.742)" fill="#d5d3d3"/><path d="M256.582,174.967c0,5.64-3.376,9.8-9.283,9.8-5.783,0-9.159-4.124-9.159-9.692,0-5.757,3.48-9.822,9.406-9.822C253.03,165.248,256.582,169.125,256.582,174.967Zm-13.2.039c0,3.591,1.542,5.718,4.033,5.718,2.53,0,3.935-2.127,3.935-5.685,0-3.9-1.431-5.75-4.007-5.75C244.944,169.288,243.383,171.064,243.383,175.006Zm11.5-17.336-5.75,5.341h-4.514l4.144-5.341Z" transform="translate(-112.263 -157.67)" fill="#d5d3d3"/><path d="M271.969,174.452c0-1.587,0-3.324-.039-4.7h5a23.291,23.291,0,0,1,.2,2.374c.631-1.171,2.14-2.81,5.412-2.81,3.747,0,6.18,2.53,6.18,7.22v11.865h-5.165V177.113c0-2.095-.7-3.617-2.979-3.617-2.192,0-3.448,1.223-3.448,4.514v10.395h-5.165V174.452Z" transform="translate(-124.072 -161.742)" fill="#d5d3d3"/></g><g transform="translate(92.172 53.562)"><path d="M162.527,101.25h8.684c4.482,0,7.273,2.29,7.273,6.141a5.065,5.065,0,0,1-3.558,5.191,6.184,6.184,0,0,1,4.352,6.186c0,4.755-3.461,7.357-8.378,7.357H162.52V101.25Zm7.969,10.258c3.539,0,4.931-1.431,4.931-3.89,0-2.283-1.483-3.9-4.677-3.9h-5.178v7.793Zm-4.924,12.164h5.08c3.135,0,5.49-1.5,5.49-4.853,0-2.992-1.9-4.807-5.8-4.807h-4.775Z" transform="translate(-162.52 -101.25)" fill="#d5d3d3"/><path d="M207.084,125.428a31.212,31.212,0,0,0,.273,4.053h-2.719a16.092,16.092,0,0,1-.267-2.823c-.7,1.834-2.543,3.148-5.523,3.148-4.462,0-5.828-3.012-5.828-5.542,0-2.752,1.776-5.8,8.32-5.8h2.8v-1.776c0-1.73-.494-3.526-3.591-3.526-2.661,0-3.578,1.223-3.883,3.239h-2.921c.273-3.057,2.036-5.549,6.9-5.549,3.818,0,6.44,1.535,6.44,5.7v8.879Zm-2.862-4.8h-2.895c-4.423,0-5.256,1.8-5.256,3.461a3.085,3.085,0,0,0,3.383,3.259c3.591,0,4.768-2.42,4.768-6.342Z" transform="translate(-173.18 -104.605)" fill="#d5d3d3"/><path d="M222.692,116.932c0-3.805-.039-4.937-.072-5.718h2.934c.046.345.137,2.1.111,2.862a5.549,5.549,0,0,1,5.386-3.226c3.383,0,5.815,1.906,5.815,6.843V129.48h-3.005V118.155c0-2.654-.9-4.69-3.623-4.69-3.259,0-4.56,2.42-4.56,6.251v9.764H222.7V116.932Z" transform="translate(-183.525 -104.605)" fill="#d5d3d3"/><path d="M265.762,123.648c-.735,3.571-3,6.173-7.344,6.173-5.139,0-7.728-3.4-7.728-9.517,0-5.263,2.654-9.465,7.91-9.465a6.681,6.681,0,0,1,7.136,6.375h-3.018c-.351-2.075-1.5-3.922-4.183-3.922-3.324,0-4.768,2.908-4.768,6.954,0,4.684,1.691,7.129,4.736,7.129,2.53,0,3.617-1.568,4.261-3.734h3Z" transform="translate(-193.336 -104.602)" fill="#d5d3d3"/><path d="M294.117,120.051c0,5.289-2.316,9.751-8.164,9.751-5.679,0-7.923-4.645-7.923-9.66,0-4.8,2.628-9.283,8.151-9.283C291.359,110.853,294.117,114.789,294.117,120.051Zm-13.01.059c0,4.209,1.717,7.2,5.028,7.2,3.422,0,4.892-2.921,4.892-7.247,0-3.968-1.652-6.72-4.989-6.72C282.8,113.345,281.107,116.136,281.107,120.11Z" transform="translate(-202.891 -104.609)" fill="#d5d3d3"/></g></g></g></svg>
