<svg xmlns="http://www.w3.org/2000/svg" xmlns:xlink="http://www.w3.org/1999/xlink" width="200" height="200" viewBox="0 0 200 200">
  <defs>
    <radialGradient id="radial-gradient" cx="0.5" cy="0.5" r="0.503" gradientTransform="translate(0.006) scale(0.988 1)" gradientUnits="objectBoundingBox">
      <stop offset="0.165" stop-color="#e42917"/>
      <stop offset="0.751" stop-color="#c51618"/>
    </radialGradient>
    <radialGradient id="radial-gradient-2" cx="0.5" cy="0.5" r="0.503" gradientTransform="translate(-0.059 4.543) scale(0.796 1.495)" xlink:href="#radial-gradient"/>
    <radialGradient id="radial-gradient-3" cx="0.5" cy="0.5" r="1.143" gradientTransform="translate(0.339 0.7) scale(0.321 1.153)" xlink:href="#radial-gradient"/>
  </defs>
  <g id="cajero" transform="translate(-665 -4238)">
    <g id="Grupo_201" data-name="Grupo 201" transform="translate(3.947 -420.994)">
      <g id="Grupo_200" data-name="Grupo 200" transform="translate(693.053 4690.994)">
        <path id="Trazado_142" data-name="Trazado 142" d="M590.539,113.54H462.956A4.657,4.657,0,0,0,458.3,118.2V220.934a4.657,4.657,0,0,0,4.656,4.656h25.56c0,8.671-.016,16.611-.069,18.437-.128,4.4,3.065,4.677,3.065,4.677s68.042.107,71.165,0,3.668-3.321,3.668-3.321l-.043-19.8h24.241a4.657,4.657,0,0,0,4.656-4.656V118.2A4.665,4.665,0,0,0,590.539,113.54Zm-95.15,20.13a1.24,1.24,0,0,1,1.239-1.239h61.18a1.24,1.24,0,0,1,1.239,1.239v42.892a1.24,1.24,0,0,1-1.239,1.239h-61.18a1.24,1.24,0,0,1-1.239-1.239Zm-23.12-.139a1.1,1.1,0,0,1,1.1-1.1h10.61a1.1,1.1,0,0,1,1.1,1.1v8.282a1.1,1.1,0,0,1-1.1,1.1h-10.61a1.1,1.1,0,0,1-1.1-1.1Zm0,17.466a1.1,1.1,0,0,1,1.1-1.1h10.61a1.1,1.1,0,0,1,1.1,1.1v8.282a1.1,1.1,0,0,1-1.1,1.1h-10.61a1.1,1.1,0,0,1-1.1-1.1Zm0,26.137v-8.282a1.1,1.1,0,0,1,1.1-1.1h10.61a1.1,1.1,0,0,1,1.1,1.1v8.282a1.1,1.1,0,0,1-1.1,1.1h-10.61A1.1,1.1,0,0,1,472.268,177.134Zm93.976,24.61v-.187a9.6,9.6,0,0,0-.71-3.946,3.4,3.4,0,0,0-2.424-1.522l-4.138-.128v31.311c-11.517,2.718-14.62,14.753-14.62,14.753H510.841c-3.364-11.9-14.753-14.491-14.753-14.491V195.961l-3.69.064c-3.556.064-3.9,3.69-3.9,3.69s0,.753.005,2.061a5.108,5.108,0,0,1,.144-10.214h76.991a5.109,5.109,0,0,1,.609,10.183Zm15.623-24.61a1.1,1.1,0,0,1-1.1,1.1h-10.61a1.1,1.1,0,0,1-1.1-1.1v-8.282a1.1,1.1,0,0,1,1.1-1.1h10.61a1.1,1.1,0,0,1,1.1,1.1Zm0-17.855a1.1,1.1,0,0,1-1.1,1.1h-10.61a1.1,1.1,0,0,1-1.1-1.1V151a1.1,1.1,0,0,1,1.1-1.1h10.61a1.1,1.1,0,0,1,1.1,1.1Zm0-17.466a1.1,1.1,0,0,1-1.1,1.1h-10.61a1.1,1.1,0,0,1-1.1-1.1v-8.282a1.1,1.1,0,0,1,1.1-1.1h10.61a1.1,1.1,0,0,1,1.1,1.1Z" transform="translate(-458.3 -113.54)" fill="url(#radial-gradient)"/>
      </g>
      <ellipse id="Elipse_13" data-name="Elipse 13" cx="11.603" cy="9.232" rx="11.603" ry="9.232" transform="translate(751.019 4793.64)" fill="url(#radial-gradient-2)"/>
      <path id="Trazado_143" data-name="Trazado 143" d="M543.6,267.9c0,.037-.005.069-.005.1,0,8.4,10.668,15.207,23.83,15.207S591.25,276.4,591.25,268c0-.037-.005-.069-.005-.1Z" transform="translate(195.004 4505.514)" fill="url(#radial-gradient-3)"/>
    </g>
    <rect id="Rectángulo_35" data-name="Rectángulo 35" width="200" height="200" transform="translate(665 4238)" fill="none"/>
  </g>
</svg>
