<svg xmlns="http://www.w3.org/2000/svg" width="108.319" height="108.944" viewBox="0 0 108.319 108.944"><g transform="translate(-313.35 -1766.181)"><g transform="translate(313.35 1766.181)"><path d="M69.074,84.812a5.564,5.564,0,0,0-1.18.084,5.2,5.2,0,0,0-3.708,5.831,5.7,5.7,0,0,0,1.079,2.494,4.683,4.683,0,0,0,6.64.961,5.264,5.264,0,0,0,2.022-5.14A4.913,4.913,0,0,0,69.074,84.812Z" transform="translate(9.566 -32.16)" fill="#d5d3d3"/><path d="M52.938,88.081a4.261,4.261,0,0,1-.876.438c-.438.118-.876.219-1.315.337-.708.2-1.449.27-2.14.506a2.375,2.375,0,0,0-1.618,1.6,3.322,3.322,0,0,0-.067,1.466,1.934,1.934,0,0,0,1.753,1.685,4.211,4.211,0,0,0,1.719-.135,3.442,3.442,0,0,0,2.646-2.747,10.713,10.713,0,0,0,.135-1.938V88.232C53.174,87.963,53.174,87.963,52.938,88.081Z" transform="translate(-2.258 -29.968)" fill="#d5d3d3"/><path d="M74.282,53.57C44.838,53.419,20.4,78.329,20.4,108.463c0,30.084,24.135,54.033,54.455,54.05,29.966.017,53.9-24.236,53.865-54.606A54.522,54.522,0,0,0,74.282,53.57ZM97.59,85.963c0-.185.051-.236.236-.236,1.146.017,2.309.017,3.455,0,.185,0,.236.051.236.236V97.525c0,.219-.067.27-.27.27q-1.719-.025-3.438,0c-.185,0-.219-.051-.219-.219ZM51.124,112.356a11.739,11.739,0,0,1-2.916,5.174,10.722,10.722,0,0,1-6.438,3.32A10.572,10.572,0,0,1,33.849,119a11.723,11.723,0,0,1-4.871-7.433,12.577,12.577,0,0,1,.388-6.792,11.954,11.954,0,0,1,6.59-7.18,9.931,9.931,0,0,1,3.708-.775,10.464,10.464,0,0,1,4.011.539,11.51,11.51,0,0,1,6.843,6.4,14.839,14.839,0,0,1,.59,1.652c.067.219,0,.253-.2.253-.691-.017-1.382,0-2.073,0H46.776a.351.351,0,0,1-.371-.219,6.971,6.971,0,0,0-4.129-3.691,6.545,6.545,0,0,0-6.775,1.5,6.958,6.958,0,0,0-2.258,3.758,7.722,7.722,0,0,0,.843,5.882,7.118,7.118,0,0,0,4.315,3.32,6.77,6.77,0,0,0,7.483-2.916,7.066,7.066,0,0,0,.573-.978.242.242,0,0,1,.27-.169h4.213C51.175,112.12,51.158,112.2,51.124,112.356Zm6.826-3.421h0v11.831c0,.371.034.32-.3.32H53.754c-.185,0-.219-.051-.219-.219V97.019c0-.185.067-.219.219-.219,1.3,0,2.612.017,3.91,0,.219,0,.287.051.287.287Q57.95,103,57.95,108.935ZM75.7,121.087c-1.315-.017-2.646-.017-3.961,0-.2,0-.27-.067-.253-.27.017-.522,0-1.062,0-1.652a6.932,6.932,0,0,1-2.511,1.416,9.285,9.285,0,0,1-3.843.455,4.71,4.71,0,0,1-3.961-2.528,6,6,0,0,1-.573-2.966,6.671,6.671,0,0,1,.539-2.629,4.915,4.915,0,0,1,2.916-2.646,17.129,17.129,0,0,1,3.674-.86c.809-.118,1.618-.236,2.41-.388a1.573,1.573,0,0,0,1.23-1.2,1.744,1.744,0,0,0-.826-1.938,4.567,4.567,0,0,0-2.461-.4,3.7,3.7,0,0,0-1.281.27,2.7,2.7,0,0,0-1.331,1.8c-.051.169-.017.388-.152.472s-.337.017-.506.017H61.254c-.32,0-.32,0-.287-.32a9.336,9.336,0,0,1,.506-2.258,5.4,5.4,0,0,1,4.028-3.539,11.771,11.771,0,0,1,7.668.573,4.406,4.406,0,0,1,2.663,3.455,9.356,9.356,0,0,1,.152,1.685v13.213C75.984,121.036,75.916,121.087,75.7,121.087ZM89.1,106.34a4.514,4.514,0,0,0-3.034.4,4.8,4.8,0,0,0-2.6,3.876,22.548,22.548,0,0,0-.084,2.612v7.6c0,.185-.034.253-.236.253-1.3-.017-2.612-.017-3.91,0-.185,0-.253-.051-.253-.236,0-6.067.017-12.118,0-18.185,0-.185.051-.236.236-.236,1.264,0,2.545.067,3.809.084.169,0,.2.067.2.219v2.022c.017,0,.034.017.051.017.185-.236.388-.472.573-.708a6.642,6.642,0,0,1,3.826-2.225,5.491,5.491,0,0,1,1.4-.185c.135,0,.169.051.169.169,0,1.433.067,2.865.051,4.315C89.315,106.306,89.3,106.373,89.1,106.34Zm17.747,10.3a9.3,9.3,0,0,1-6,4.365,11.3,11.3,0,0,1-1.854.067,6.577,6.577,0,0,1-3.59-.64,9.877,9.877,0,0,1-4.348-3.994,10.137,10.137,0,0,1,3.758-13.8,7.516,7.516,0,0,1,3.438-.994,8.618,8.618,0,0,1,4.23.657,9.453,9.453,0,0,1,5.511,6.657A9.637,9.637,0,0,1,106.843,116.637Zm2.242-14.41c-.034-.034-.067-.051-.1-.084l-2.6-2.7c-.118-.135-.034-.185.034-.27,1.449-1.517,2.916-3.017,4.365-4.534l6.084-6.337c.135-.152.2-.152.354,0,.809.86,1.618,1.7,2.444,2.562.135.135.152.2,0,.354q-5.208,5.435-10.382,10.854C109.22,102.126,109.186,102.21,109.085,102.227Zm13.567,8.865H111.293c-.185,0-.219-.051-.219-.219,0-1.2.017-2.393,0-3.573,0-.2.051-.27.27-.27,1.871.017,3.758,0,5.629,0h5.646c.2,0,.253.051.236.253-.017,1.2,0,2.41,0,3.607C122.871,111.042,122.837,111.092,122.652,111.092Z" transform="translate(-20.4 -53.57)" fill="#d5d3d3"/></g></g></svg>
