<svg xmlns="http://www.w3.org/2000/svg" width="141.117" height="43.618" viewBox="0 0 141.117 43.618"><g transform="translate(-972.789 -1794.833)"><g transform="translate(972.789 1794.833)"><path d="M500.317,103.224a12.593,12.593,0,0,1-5.073.354c-4.433-.438-6.809-2.865-6.927-7.6-.169-7.466-.051-14.932-.067-22.416,0-1.129.489-1.584,1.6-1.551,6.32.118,5.14-.876,5.225,4.972.067,5.41.017,10.82.017,16.23,0,3.927.421,4.331,4.348,4.331.287,0,.59.017.876.034Z" transform="translate(-359.2 -69.583)" fill="#d5d3d3"/><path d="M411.687,87.672V73.195c0-.91-.051-1.888,1.247-1.888,5.056.051,10.146-.489,15.152.4,8.191,1.433,13.028,7.348,13.146,15.691.084,5.73-1.787,10.5-6.607,13.871a16.577,16.577,0,0,1-9.135,2.9c-3.994.118-8.006,0-12,.067-1.4.017-1.837-.556-1.82-1.888C411.721,97.43,411.687,92.56,411.687,87.672Zm7.23,0c0,2.713.034,5.41-.017,8.124-.017,1.129.4,1.618,1.551,1.567,1.584-.051,3.185.034,4.77-.051,4.247-.236,7.416-2.781,8.225-6.708a13.175,13.175,0,0,0-.118-6.118,7.835,7.835,0,0,0-6.792-6.067,41.76,41.76,0,0,0-5.983-.337c-1.23-.034-1.668.455-1.635,1.652C418.968,82.38,418.917,85.026,418.917,87.672Z" transform="translate(-411.67 -70.144)" fill="#d5d3d3"/><path d="M453.689,98.275c-5.9,3.219-11.444,2.157-14.764-2.713-3.4-4.989-2.528-12.472,1.9-16.3a10.243,10.243,0,0,1,11.713-1.18c.573.32,1.163,1.045,1.5-.236.118-.455.624-.472,1.028-.522,5.157-.742,5.6-.371,5.6,4.786,0,4.888-.169,9.775.034,14.663.388,9.3-5.781,14.039-14.882,13.028a16.815,16.815,0,0,1-6.691-2.107c-.792-.455-1.146-.994-.607-1.854a2.583,2.583,0,0,0,.135-.32c.573-1.23.826-2.865,1.786-3.573,1.062-.775,2.208.843,3.421,1.146a11.612,11.612,0,0,0,6.607.286C452.729,102.691,453.858,100.921,453.689,98.275Zm.455-9.809A5.12,5.12,0,0,0,449,83.107c-2.933-.017-5.022,2.242-5.022,5.427a5,5,0,0,0,5.073,5.343A5.123,5.123,0,0,0,454.144,88.467Z" transform="translate(-394.414 -66.32)" fill="#d5d3d3"/><path d="M487.867,91.2c-2.056,0-4.129-.017-6.185.017-.438,0-1.045-.236-1.247.337-.169.472.219.893.472,1.281,1.2,1.787,3.472,2.528,6,1.972.455-.1.893-.3,1.348-.421.961-.219,1.77-1.517,2.7-1.011a22.76,22.76,0,0,1,3.573,2.865c.64.539.371,1.045-.152,1.466a13.884,13.884,0,0,1-13.786,2.461c-4.466-1.466-6.86-4.837-7.4-9.438-.809-6.927,2.629-12.421,8.646-13.618,9.337-1.854,14.461,4.871,14.09,12.59-.051,1.129-.59,1.534-1.685,1.5C492.114,91.162,489.991,91.2,487.867,91.2Zm-3.371-4.82c1.062,0,2.124.017,3.168,0,.927-.017,1.112-.472.758-1.264a3.823,3.823,0,0,0-3.64-2.343,3.99,3.99,0,0,0-4.062,2.242c-.4.86-.253,1.365.775,1.365C482.508,86.393,483.5,86.393,484.5,86.376Z" transform="translate(-369.587 -66.303)" fill="#d5d3d3"/><path d="M471.7,76.833a10.823,10.823,0,0,1,8.545,3.472c.708.742.893,1.331-.084,1.972a11.693,11.693,0,0,0-1.214,1.011c-2.191,1.871-2.191,1.871-4.753.506a5.133,5.133,0,0,0-6.539,1.23,6.3,6.3,0,0,0,.118,7.685c1.753,1.989,4.466,2.579,6.657.843,1.871-1.466,2.949-.876,4.213.489.084.084.169.152.27.236,2.545,2.208,2.528,2.427-.169,4.4a12.874,12.874,0,0,1-14.578-.1c-4.1-2.983-5.747-8.7-4.028-13.972C461.718,79.731,466.033,76.833,471.7,76.833Z" transform="translate(-378.915 -66.282)" fill="#d5d3d3"/><path d="M453.484,88.423c0-3.118.034-6.236-.017-9.337-.017-1.4.489-2.022,1.955-2.006,5.831.1,5.039-.725,5.073,4.837.034,5.343-.034,10.7.034,16.045.017,1.685-.539,2.376-2.242,2.208a16.216,16.216,0,0,0-3,0c-1.416.1-1.854-.556-1.837-1.871C453.518,95.013,453.484,91.709,453.484,88.423Z" transform="translate(-383.034 -66.108)" fill="#d5d3d3"/><path d="M437.853,88.609c0,3.236-.034,6.455.017,9.691.017,1.348-.438,1.9-1.837,1.888-6.017-.118-4.972.758-5.039-4.82-.067-5.41.034-10.8-.034-16.213-.017-1.5.455-2.107,2.006-2.073,5.815.118,4.77-.674,4.871,4.837C437.887,84.142,437.853,86.367,437.853,88.609Z" transform="translate(-398.449 -66.108)" fill="#d5d3d3"/><path d="M457.244,70.57a4.231,4.231,0,0,1,.118,8.461,4.313,4.313,0,0,1-4.331-4.2A4.215,4.215,0,0,1,457.244,70.57Z" transform="translate(-383.323 -70.57)" fill="#d5d3d3"/><path d="M434.7,70.57a4.124,4.124,0,0,1,4.163,4.315,4.27,4.27,0,0,1-4.382,4.146,4.132,4.132,0,0,1-3.944-4.348A4.076,4.076,0,0,1,434.7,70.57Z" transform="translate(-398.737 -70.57)" fill="#d5d3d3"/></g></g></svg>
