<svg xmlns="http://www.w3.org/2000/svg" width="115.619" height="117.177" viewBox="0 0 115.619 117.177"><path d="M716.466,101.791a6.026,6.026,0,0,1-5.916-6.3,6.384,6.384,0,0,1,6.152-6.017,6.281,6.281,0,0,1,5.882,6.438A5.869,5.869,0,0,1,716.466,101.791Z" transform="translate(-660.416 -19.722)" fill="#d5d3d3"/><path d="M785.022,98.2a48.079,48.079,0,0,0-14.09-7.433c-.657-.236-1.584-.337-1.551-1.264.084-2.208.135-4.365,1.82-6.2,2.141-2.343,4.517-4.433,6.725-6.691a9.8,9.8,0,0,1,3.826-2.865c1.079-.354.539-1.3.253-1.938-.3-.657-1.112-1.8-1.517-1.315-.826,1.011-1.551.169-2.494.2,1.011,1.854.185,3.067-1.2,3.944a50.109,50.109,0,0,0-4.753,3.657c-.522.421-.961,1.062-1.8,1.18a1.273,1.273,0,0,1,.641-1.163A5.7,5.7,0,0,0,772.8,74.4a19.7,19.7,0,0,0-.253-5.815c-.32-2.376,1.281-5.124-1.281-7.112-.286-.219.219-1.163-.489-1.213-.674-.051-.775.708-.91,1.23-.27,1.1-.489,2.14-2.039,1.433a.6.6,0,0,0-.843.337c-.118.421.354.489.573.691.961.893,2.242,1.551,2.191,3.135a23.591,23.591,0,0,1-.893,6.4c-.607,1.871-1.534,2.612-3.556,2.292a2.254,2.254,0,0,0-2.562,1.062,2.357,2.357,0,0,1-2.393,1.247,5.97,5.97,0,0,1,1.837-2.747,2.624,2.624,0,0,0,1.1-1.972c0-.994-3.236-4.786-4.213-4.8a22.894,22.894,0,0,0-2.612.27c1.4-1.888,2.461-3.758,4.23-4.9a27.483,27.483,0,0,0,5.478-5.073c1.972-2.225,3.843-4.669,7.247-4.854.691-.034.893-.455.185-.927-.286-.185-.927-.253-.388-.775,1.8-1.753-.624-.91-.843-1.382-.051-.573.809-.978.3-1.534-.489-.539-.843.337-1.331.253-.354-.489.4-1.416-.472-1.551-.657-.1-.725.725-.927,1.213-.472,1.163-1.079,1.129-1.837.27-.185-.2-.337-.438-.522-.657-.27-.3-.573-.607-.994-.371-.522.287-.168.657-.017.994,1.483,3.489,1.1,2.933-1.163,5.225a9.638,9.638,0,0,1-1.938,1.567c-3.287,1.955-5.646,5.191-9.354,6.556A3.348,3.348,0,0,0,752.881,64a10.25,10.25,0,0,1-5.629,3.354c-.455.118-1.045.86-1.433.1a1.3,1.3,0,0,1,.573-1.6,1.773,1.773,0,0,0,.86-1.669,9.14,9.14,0,0,0-2.612-5.781,3.137,3.137,0,0,0-4.247.034,9.7,9.7,0,0,0-1.854,7.534c.051.472.59.927.169,1.382-.455.489-.944.017-1.382-.135a63.456,63.456,0,0,1-12.859-6.371c-.927-.59-1.989-1.011-2.916-1.584-2.427-1.5-5.292-2.7-4.635-6.438.067-.388.219-1.011-.371-1.129-.522-.118-.758.4-.91.826-.472,1.315-1.062,1.2-1.854.253-.371-.438-.775-1.129-1.483-.809-.725.337.32.994-.1,1.466-.691.051-1.382-1.129-1.9-.287-.337.522-2.039,1.281-.286,2.208.034.017-.017.185-.034.287-.236,1.028-.253,1.079.725,1.264a9.876,9.876,0,0,1,3.1,1.163c2.494,1.416,4.315,3.657,6.556,5.393a.79.79,0,0,1,.253,1.163c-1.685,2.461-2.107,5.612-4.331,7.77a11.2,11.2,0,0,0-2.6,3.219c-.354.742-.843.607-1.5.253-1.6-.876-2.848-.354-3.607,1.331-.219.472-.051,1.129-.758,1.517-.792-1.045-.455-2.376-.961-3.455-1.2-2.562-1.315-5.376-1.77-8.107a1.853,1.853,0,0,1,.219-1.618c1.247-1.315,1.062-2.208-.657-2.764-.944-.3-2.006-.657-2.848-.017-.961.725-.1,1.466.337,2.14a4.965,4.965,0,0,1,.826,3,24.838,24.838,0,0,0,.32,4.989c.809,5.157,1.348,10.348,1.669,15.556a11.044,11.044,0,0,1-.32,3.64,7.513,7.513,0,0,0-.2,2.14c0,2.629-.32,4.871-3.034,6.607A48.7,48.7,0,0,0,684.877,117.7a27.782,27.782,0,0,0-3.708,18.758c1.55,9.371,7.3,15.741,15.1,20.545,8.612,5.275,18.185,7.534,28.1,8.107a85.528,85.528,0,0,0,39.708-7.028c10.736-4.685,20.174-11.107,26.814-20.983C799.566,124.1,798.353,108.7,785.022,98.2Zm-21-1.888a5.966,5.966,0,1,1-5.966,5.966A5.966,5.966,0,0,1,764.022,96.312Zm-39.556,36.927c-.573.32-1.079-.017-1.534-.354a3.657,3.657,0,0,1-1.685-3.084c.017-1.837.017-3.674-.034-5.494-.084-3.506-2.764-6.421-5.933-6.472-3.185-.051-6,2.916-6.067,6.455-.051,2.562.017,5.107-.034,7.669-.017,1.466-.674,1.786-1.871.978a3.626,3.626,0,0,1-1.77-3.2c.017-1.938.051-3.893-.034-5.831a6.222,6.222,0,0,0-5.006-5.882,6.078,6.078,0,0,0-6.455,3.4,5.464,5.464,0,0,0-.539,2.579c0,1.77.017,3.556-.034,5.326a4.132,4.132,0,0,1-1.871,3.708c-1.079.674-1.7.371-1.753-.893-.067-1.6-.017-3.219-.017-4.837h-.017c0-1.062.017-2.107,0-3.168-.1-4.163,2.006-7.028,5.562-8.713,3.826-1.82,7.5-1.129,10.652,1.719.944.843,1.449.893,2.444.017,5.107-4.449,12.506-3.1,15.455,2.713a8.847,8.847,0,0,1,.927,3.86c.067,2.713.034,5.444.017,8.174C724.9,132.379,724.988,132.952,724.466,133.239Zm.522-50.8c.067-1.652.826-3.017.32-4.534-.573-1.685-1.837-2.865-3.472-2.7-1.584.152-2.562,1.416-2.629,3.27a13.7,13.7,0,0,0,.775,4.466c-2.713-1.6-3.067-2.343-2.427-4.9a17.541,17.541,0,0,1,2.14-5.006,3.729,3.729,0,0,1,3.253-1.719c1.146.017,1.551,1.331,1.972,2.393.657,1.652.944,3.4,1.449,5.107A3.031,3.031,0,0,1,724.988,82.441Zm.775-14.8c2.14,1.8,4.3,3.067,5.646,4.921,1.365,1.854,1.955,4.281,2.781,6.506,1.129,3.1-.034,5.343-2.107,7.433-.388.388-.792.994-1.382.59-.623-.438-.135-1.045.135-1.466,2.478-3.876,1.045-7.449-.961-10.871a19.775,19.775,0,0,0-2.68-2.916A5.816,5.816,0,0,1,725.764,67.644Zm38.78,55.837c-.1,4.8-2.73,8.646-6.961,9.674-4.4,1.079-7.938.253-10.668-3.455-.86-1.163-1.348-1.18-2.174.017-4.214,6.118-14.359,4.8-16.9-2.309a9.688,9.688,0,0,1,3.1-10.786,9.586,9.586,0,0,1,10.786-.843c.657.4,1.281.893,1.921,1.315.388.253.657.927,1.23.59.489-.287.286-.91.354-1.382.067-.522-.236-1.23.421-1.483.624-.236,1.18.236,1.635.64a4.264,4.264,0,0,1,1.348,3.286,37.991,37.991,0,0,0,.219,6.489,5.805,5.805,0,0,0,5.815,4.955,6.023,6.023,0,0,0,5.966-4.82,21.044,21.044,0,0,0,.3-4.483v-2.831a3.037,3.037,0,0,1,1.045-2.376c.59-.506,1.264-1.2,2.039-.893.927.371.421,1.348.438,2.073C764.477,119.048,764.595,121.256,764.544,123.481Zm21.742,8.477c0,.489.051,1.062-.489,1.315a1.345,1.345,0,0,1-1.517-.388,3.82,3.82,0,0,1-1.635-3.118c.017-1.719.034-3.455-.034-5.174-.135-3.286-1.753-5.629-4.382-6.438a5.879,5.879,0,0,0-7.6,5.275c-.1,1.989-.051,3.994-.051,6a4.142,4.142,0,0,1-1.736,3.438c-1.146.86-1.854.489-1.888-.944-.051-1.551-.017-3.118-.017-4.669,0-1.112.084-2.225-.017-3.337-.337-3.742,2.949-7.7,6.185-8.831a9.834,9.834,0,0,1,10.77,2.764,9.7,9.7,0,0,1,2.427,6.4C786.269,126.834,786.3,129.4,786.286,131.958Z" transform="translate(-680.804 -48.085)" fill="#d5d3d3"/></svg>
