<svg xmlns="http://www.w3.org/2000/svg" width="163.753" height="37.078" viewBox="0 0 163.753 37.078"><g transform="translate(-1178.05 -1795.002)"><path d="M571.757,70.67c.034,1.4.067,2.781.084,4.18.017,2.478.017,2.478,2.562,2.478h.691c2.714,0,2.629,0,2.764,2.7.084,1.534-.489,1.9-1.888,1.921-4.129.034-4.129.084-4.129,4.18,0,3.084-.034,6.169.017,9.27.034,2.427.927,3.219,3.354,3.135a10.135,10.135,0,0,0,1.9-.169c1.635-.388,2.292.236,2.511,1.888.32,2.461.236,2.663-2.174,3.118a21.741,21.741,0,0,1-5.225.236c-4.062-.185-6.067-2.225-6.152-6.286-.067-4.365-.1-8.747.017-13.112.05-1.753-.489-2.478-2.275-2.275-.961.1-1.938.051-1.972-1.331-.034-1.247-.169-2.579,1.618-2.713,2.039-.152,3.286-1.062,3.135-3.253-.168-2.444,1.449-3.32,3.371-3.944C570.594,70.67,571.167,70.67,571.757,70.67Z" transform="translate(664.036 1724.332)" fill="#d5d3d3"/><path d="M607.963,88.5c0-3.27-.017-6.522,0-9.792.017-2.36.859-3.506,3.219-3.809,4.753-.624,9.539-1.264,13.938,1.466.691.421,1.2.034,1.77-.253A17.574,17.574,0,0,1,636.6,74.48c5.478.624,8.663,3.961,9.236,9.506a120.809,120.809,0,0,1,.236,13.972c0,.86.2,2.107-.86,2.478a6.612,6.612,0,0,1-4.449-.034c-.758-.287-.573-1.2-.573-1.888-.017-3.91,0-7.8-.034-11.713a12.847,12.847,0,0,0-.253-2.781c-.607-2.831-1.837-3.944-4.669-4.433a7.265,7.265,0,0,0-2.258-.084c-3.944.573-3.674.556-3.421,4.466.32,5.056.152,10.129.185,15.2a1.288,1.288,0,0,1-1.382,1.449c-.691.034-1.4.051-2.09.034-2.073-.051-2.461-.4-2.494-2.461-.034-2.562-.017-5.124-.017-7.685V86.834c-.067-6.067-2.107-7.888-8.191-7.416-1.331.1-1.77.59-1.736,1.955.1,5.477.1,10.955.084,16.432,0,.944.32,2.275-.792,2.646a6.9,6.9,0,0,1-4.618-.084c-.674-.27-.522-1.1-.539-1.736C607.963,95.261,607.98,91.873,607.963,88.5Z" transform="translate(695.649 1726.859)" fill="#d5d3d3"/><path d="M570,90.046v6.994a2.308,2.308,0,0,1-1.5,2.511c-5.191,1.719-10.466,2.275-15.758.556a6.551,6.551,0,0,1-4.685-6.135,8.131,8.131,0,0,1,3.3-7.82,12.407,12.407,0,0,1,6.792-1.955c1.449-.084,2.916-.067,4.365-.017,1.315.051,1.618-.64,1.449-1.753a3.131,3.131,0,0,0-2.528-2.781,16.016,16.016,0,0,0-7.938.4c-1.837.472-2.393-.219-2.7-1.8-.4-2.056-.3-2.393,1.635-2.848a29.993,29.993,0,0,1,9-.961c5.646.388,8.461,3.337,8.579,8.966C570.036,85.614,570,87.838,570,90.046Zm-6,2.309c0-.809.017-1.635,0-2.444a1.01,1.01,0,0,0-1.079-1.112,54.3,54.3,0,0,0-5.747.135,3.559,3.559,0,0,0-3.152,3.792c.051,1.888.994,2.9,3.118,3.354a10.293,10.293,0,0,0,3.287.253C564.019,95.962,564.019,95.962,564,92.355Z" transform="translate(654.566 1726.883)" fill="#d5d3d3"/><path d="M533.477,88.765c0-3.152-.051-6.3.017-9.438.067-3.3.978-4.264,4.23-4.567a35.459,35.459,0,0,1,8.022-.236c6.859.978,9.657,3.809,10.062,10.7.27,4.584.067,9.2.1,13.8,0,1.1-.489,1.6-1.567,1.618-5.022.084-4.416.253-4.433-4.011-.017-3.607.017-7.23-.034-10.837-.084-6.337-4.568-6.927-9.455-6.2-1.079.169-.961,1.163-.961,1.972,0,5.477.017,10.955-.017,16.432,0,.876.371,2.14-.775,2.444a6.9,6.9,0,0,1-4.618-.152c-.657-.3-.539-1.23-.539-1.921C533.477,95.187,533.477,91.984,533.477,88.765Z" transform="translate(644.591 1726.866)" fill="#d5d3d3"/><path d="M584.646,101.152c-7.315.034-11.174-3.657-11.781-10.972a18.423,18.423,0,0,1,1.466-9.522c1.837-3.961,5.107-5.781,9.236-6.219A15.92,15.92,0,0,1,591.4,75.8c1.1.455,1.4,1.146.843,2.208a6.751,6.751,0,0,0-.573,1.281c-.388,1.348-1.18,1.736-2.511,1.23a14.208,14.208,0,0,0-4.112-.775,5.131,5.131,0,0,0-5.225,3.084,12.335,12.335,0,0,0-.219,10.011c.86,2.275,3.371,3.472,6.067,3.118a14.23,14.23,0,0,0,4.247-.944c1.146-.522,1.753-.219,2.292.944,1.382,3.051,1.281,3.421-1.9,4.382a16.133,16.133,0,0,1-2.562.573C586.753,101.051,585.691,101.085,584.646,101.152Z" transform="translate(671.539 1726.866)" fill="#d5d3d3"/><path d="M622.232,88.285a11.51,11.51,0,0,0-.286-2.528q-2.6-11.528-14.022-14.6a22.912,22.912,0,0,0-3.017-.472h-2.36c-.758.1-1.517.185-2.275.32a18.545,18.545,0,0,0-14.8,14.916c-.152.86-.2,1.719-.3,2.579v1.517c.1.826.135,1.669.3,2.494a18.371,18.371,0,0,0,12.876,14.477,19.626,19.626,0,0,0,3.691.742h3.27c.657-.1,1.331-.185,1.989-.3a18.586,18.586,0,0,0,14.663-14.882c.152-.927.219-1.854.3-2.781v-1.1C622.265,88.521,622.232,88.4,622.232,88.285ZM595.906,72.9a18,18,0,0,1,5.107-1.567,8.893,8.893,0,0,0-.961,4.2h-5.41A15.184,15.184,0,0,1,595.906,72.9Zm-6.893,26.865c1.517-8.376,4.416-11.326,5.376-12.472.994-1.163,4.4-4.062,4.4-4.062,3.034-1.247,8.764,1.972,8.764,1.972l-2.983,3.809c-3.961,5.275-2.326,15.3-1.736,18.236A17.951,17.951,0,0,1,589.013,99.763Zm4.247-16.635a16.319,16.319,0,0,1,5.882-.539l-.034.287s-1.483.506-5.612,4.955A17.423,17.423,0,0,1,593.26,83.128Zm24.4,17.646a18.078,18.078,0,0,1-6.607,4.972c-2.511-.59-7.921-2.039-8.579-3.657,0,0-.742-8.781,2.292-12.725a21.267,21.267,0,0,0,8.528,5.545s2.157.86,3.809,1.382A19.6,19.6,0,0,1,617.664,100.774Zm.506-.624a1.945,1.945,0,0,1-.236.287,17.65,17.65,0,0,0-12.253-16.685c-10.416-3.539-17.292.219-19.6,1.837l-.1.067a17.948,17.948,0,0,1,4.2-8.444c11.494-3.067,17.562-.657,24.219,6.421C619.923,89.516,618.76,97.488,618.17,100.15ZM612.743,81.46a16.659,16.659,0,0,0-4.028-3.034,76.542,76.542,0,0,1,8.966-.775,17.31,17.31,0,0,1,1.685,2.427C616.7,79.943,612.743,81.46,612.743,81.46Z" transform="translate(680.032 1724.346)" fill="#d5d3d3"/></g></svg>
