<svg xmlns="http://www.w3.org/2000/svg" xmlns:xlink="http://www.w3.org/1999/xlink" width="59.516" height="91.02" viewBox="0 0 59.516 91.02"><defs><radialGradient id="a" cx="0.5" cy="0.501" r="0.52" gradientTransform="translate(0.036) scale(0.927 1)" gradientUnits="objectBoundingBox"><stop offset="0.165" stop-color="#e42917"/><stop offset="0.751" stop-color="#c51618"/></radialGradient><radialGradient id="b" cx="0.5" cy="0.5" r="0.5" gradientTransform="translate(-0.001)" xlink:href="#a"/><radialGradient id="c" cx="0.5" cy="0.5" r="0.422" gradientTransform="translate(-0.265) scale(1.529 1)" xlink:href="#a"/></defs><g transform="translate(-742.356 -1007.71)"><g transform="translate(559.096 951.83)"><path d="M234.32,146.64c-6.42,0-12.85.13-19.26-.04-6.73-.17-13.46-.06-20.19-.21q-.69-.015-1.38-.09c-2.11-.23-2.11-.23-2.11-2.42v-7.62c0-1.73.02-1.74,1.8-1.91,2.37-.22,4.75-.4,7.11-.68a4.645,4.645,0,0,0,4.51-5c0-1.05.29-1.14,1.21-.78q8.685,3.465,17.4,6.81c.33.13.86.73,1.15.05.26-.6-.31-.82-.81-1.02q-12.03-4.71-24.05-9.44a7.634,7.634,0,0,1,1.71-14.79,8.355,8.355,0,0,1,4.27.75c5.87,2.3,11.74,4.62,17.62,6.89.37.14.94.79,1.26.07.29-.67-.05-1.18-.83-1.48-6.64-2.55-13.26-5.14-19.9-7.69a1.171,1.171,0,0,1-.92-1.13c-.07-1.19-.19-2.37-.32-3.56-.08-.74.49-.9.95-1.12a26.378,26.378,0,0,1,9.11-2.78c6.99-.64,13.83.06,20.23,3.23a23.2,23.2,0,0,1,6.82,5.24c2.35,2.58,2.7,5.79,2.98,9.01.15,1.68.08,3.38.08,5.08q0,11.7-.01,23.41c0,1.45-.03,1.48-1.49,1.48h-6.92A1.018,1.018,0,0,1,234.32,146.64Z" fill="url(#a)"/><path d="M212.42,55.88A21.16,21.16,0,1,1,191.38,77.1,21.108,21.108,0,0,1,212.42,55.88Z" fill="url(#b)"/><path d="M196.71,102.52c3.28-.11,4.37,2.22,4.31,4.7-.01.5-.46.58-.83.65-4.47.84-7.05,5.08-7.3,9.11-.27,4.33,2.03,7.73,6.21,9.38,1,.4,1.99.83,2.99,1.21a.836.836,0,0,1,.56,1.26,3.4,3.4,0,0,1-2.82,2.41c-3.51.38-7.02.78-10.54,1.08a3.694,3.694,0,0,1-4.14-3.67c-.56-6.39-1.19-12.77-1.73-19.16-.12-1.39-.42-2.82.34-4.18a3.34,3.34,0,0,1,2.64-1.83C189.95,103.12,193.5,102.82,196.71,102.52Z" fill="url(#c)"/></g></g></svg>
