<svg xmlns="http://www.w3.org/2000/svg" width="296.705" height="80.811" viewBox="0 0 296.705 80.811"><g transform="translate(-551.39 -5229.608)"><path d="M607.682,103.98q12.743.01,11.891,12.873c-.781,11.813-11.351,20.25-22.045,17.609-5.126-1.268-8.112-4.677-8.613-9.822A19.133,19.133,0,0,1,607.682,103.98Zm4.6,9.966c.137-5.679-3.545-8.086-8.177-5.8a9.53,9.53,0,0,0-3.949,3.877,27.847,27.847,0,0,0-3.552,11.39c-.358,3.207-.41,6.388,3.3,7.682,3.643,1.275,6.186-.7,8.131-3.539C610.921,123.345,611.845,118.5,612.281,113.946Z" transform="translate(86.654 5151.427)" fill="#d5d3d3"/><path d="M836.86,134.171c-5.243,1.366-8.391.124-10.148-4.742-1.347-3.734-3.519-7.168-5.412-10.915,2.94-.364,5.8.1,7.884-2.062,1.867-1.945,3.272-4.287,1.646-6.837s-4.56-1.776-7.038-1.652c-1.483.072-1.125,1.639-1.36,2.576-1.828,7.279-3.565,14.578-5.373,21.863-.449,1.8-5.737,3.226-6.934,1.886-.644-.722-.033-1.5.137-2.225,2-8.339,3.987-16.685,6.037-25.018.26-1.073.228-2.5,2.03-2.465,4.43.091,8.886-.124,13.29.234,3.122.254,6.336,1.321,6.941,5.035.664,4.085-1.379,7.6-5.009,8.7-5.62,1.711-3.532,4.124-1.613,7.116C833.654,128.355,835.143,131.185,836.86,134.171Z" transform="translate(9.412 5151.218)" fill="#d5d3d3"/><path d="M714.895,104.749c-1.652,6.622-3.1,13.173-4.931,19.619-2.621,9.237-13.816,13.712-22.182,9.016-3.148-1.769-4.664-4.638-3.988-8.118,1.255-6.446,2.667-12.88,4.423-19.209.937-3.383,4.17-1.49,6.225-1.483,2.2.007.781,2.01.553,3.025-1.177,5.236-2.433,10.453-3.812,15.638-.748,2.823-.943,5.477,1.99,7.038,3.174,1.691,6.277,1.119,8.925-1.307a11.1,11.1,0,0,0,2.953-5.64c1.321-5.061,2.953-10.083,3.786-15.222C709.515,103.962,711.668,103.981,714.895,104.749Z" transform="translate(53.52 5151.407)" fill="#d5d3d3"/><path d="M653.021,121.6c-.917-.306-2.713.852-2.875-.865-.143-1.542,1.678-.664,2.569-1.028a9.412,9.412,0,0,0,4.56-3.155c1.4-2.043,2.726-4.274,1.5-6.713-1.132-2.257-3.63-1.821-5.737-2.062s-2.693.774-3.129,2.654c-1.626,7.058-3.448,14.07-5.224,21.1-.611,2.426-5.243,4.3-7.214,2.947-.885-.6-.436-1.47-.267-2.186,2.095-8.606,4.235-17.193,6.336-25.8.28-1.138.657-2.023,2.075-1.945,5.087.28,10.239-.67,15.267.585,6.616,1.659,8.17,7.585,3.344,12.5C661.81,120.111,658.089,121.438,653.021,121.6Z" transform="translate(69.839 5151.259)" fill="#d5d3d3"/><path d="M555.3,120.962c2.706-1.444,5.861-1.893,7.559-4.742,1.184-1.984,2.478-4.1,1.288-6.388-1.171-2.244-3.636-1.834-5.75-2.062-2.016-.215-2.726.637-3.168,2.55-1.652,7.181-3.5,14.317-5.3,21.46-.572,2.283-5.113,3.936-7.058,2.641-.794-.527-.423-1.177-.286-1.756,2.14-8.86,4.339-17.7,6.44-26.566.273-1.151.774-1.607,1.88-1.555,4.95.221,9.953-.579,14.864.468,2.81.6,5.62,1.516,6.212,4.879a8.266,8.266,0,0,1-3.344,8.528C564.68,121.379,560.146,121.931,555.3,120.962Z" transform="translate(102.889 5151.261)" fill="#d5d3d3"/><path d="M771.576,123.594c-1.5,2.381-3.168,4.671-4.449,7.155-1.6,3.116-3.63,4.911-7.468,3.389-.449-.859.54-1.464.989-2.16,5.341-8.365,10.8-16.659,16.061-25.07,1.164-1.867,2.452-2.608,4.56-2.355,2.465.3,1.8,2.342,2.088,3.727,1.646,7.741,3.233,15.5,4.7,23.275.176.93,1.307,3.1-1.262,3.415-2,.247-4.82,1.314-5.113-2.329-.423-5.2-2.309-7.878-7.891-6.707-1.2.254-1.8-.306-1.242-1.594.247-.449.488-.9.735-1.34,1.789-1.529,5.106.9,5.926-1.568.644-1.932-.455-4.443-.807-6.694a9.7,9.7,0,0,0-.494-1.366,50.96,50.96,0,0,0-5.354,8.749C772.226,122.612,771.9,123.106,771.576,123.594Z" transform="translate(26.989 5151.244)" fill="#d5d3d3"/><path d="M744.883,104.57c-1.977,8.1-3.766,15.775-5.757,23.4-.651,2.485-.2,3.409,2.485,3.135,1.977-.2,3.994-.039,6.082-.039-.488,2.537-1.646,3.656-4.17,3.552-4.261-.169-8.534-.046-13.114-.046,2.355-9.647,4.651-18.845,6.8-28.082.41-1.75,1.281-2.036,2.784-1.938C741.462,104.649,742.932,104.57,744.883,104.57Z" transform="translate(37.172 5151.234)" fill="#d5d3d3"/><path d="M398.06,64.32v80.811H477.7V64.32Zm70.5,36.8-14.422,1.268a16.415,16.415,0,0,0-.319-1.893l14.1-3.174A30.256,30.256,0,0,1,468.561,101.119Zm-2.908-10.252c.364.748.69,1.522,1,2.3a4.621,4.621,0,0,1,.065.618l-13.426,4.866c-.182-.514-.384-1.015-.611-1.509l12.789-6.5A1.51,1.51,0,0,1,465.653,90.867ZM461.334,84.3a30.631,30.631,0,0,1,1.958,2.537c.02.072.039.143.052.215l-11.676,8.229a17.2,17.2,0,0,0-1.2-1.685l10.831-9.322C461.3,84.271,461.314,84.284,461.334,84.3Zm-2.478-2.576-9.8,10.343a17.654,17.654,0,0,0-1.587-1.36l8.274-11.5A30.555,30.555,0,0,1,458.855,81.727ZM452.5,77.2l-6.6,12.47a16.452,16.452,0,0,0-2.433-1.177c.8-2.823,3.857-11.572,4.449-13.27A29.832,29.832,0,0,1,452.5,77.2Zm-12.607-3.552a30.464,30.464,0,0,1,4.391.572l-2.491,13.706a16.653,16.653,0,0,0-2.621-.494Zm-11.865,1.633,3.656,13.029a16.282,16.282,0,0,0-2.5,1.125l-6.8-11.527A31,31,0,0,1,428.028,75.281ZM419.715,79.7l7.819,10.785a17.169,17.169,0,0,0-2.843,2.563l-9.77-8.879A30.9,30.9,0,0,1,419.715,79.7Zm-6.648,6.837L423.6,94.418a16.756,16.756,0,0,0-1.88,3.4l-12-5.249A30.4,30.4,0,0,1,413.067,86.534Zm-4.5,9.432,12.581,3.474a17.035,17.035,0,0,0-.677,4.059l-13.01-.742A30.792,30.792,0,0,1,408.565,95.967ZM407.479,106l13.049-.254a16.626,16.626,0,0,0,.878,4.079l-12.633,3.415A30.655,30.655,0,0,1,407.479,106Zm2.42,10.317,11.969-5.321a16.787,16.787,0,0,0,2.322,3.818l-9.835,8.821A30.731,30.731,0,0,1,409.9,116.314Zm6.245,9.322,9.77-8.977a16.765,16.765,0,0,0,3.324,2.387l-6.759,11.566A30.518,30.518,0,0,1,416.144,125.636Zm18.24,9.016a30.434,30.434,0,0,1-8.866-2.465l5.633-12.249a16.747,16.747,0,0,0,4.508,1.093Zm-.6-46.933c-.579-2.732-2.023-10.948-2.446-13.374a30.058,30.058,0,0,1,5.607-.722l.117,13.725A16.433,16.433,0,0,0,433.785,87.718Zm4.287,47.161c-.176,0-.351-.013-.527-.013l.111-13.758a16.953,16.953,0,0,0,5.5-1.015l4.989,13.081A30.621,30.621,0,0,1,438.072,134.879Zm13.159-2.96-6.193-12.652a16.824,16.824,0,0,0,2.563-1.613,17.064,17.064,0,0,0,2.849-2.758c.091-.117.182-.228.273-.345l11.358,8.73A30.915,30.915,0,0,1,451.231,131.919Zm13.049-11.793L451.544,112.4a11.861,11.861,0,0,0,2.147-5.523h-12.88l-3.513-2.524h31.425A30.628,30.628,0,0,1,464.28,120.126Z" transform="translate(153.33 5165.289)" fill="#d5d3d3"/></g></svg>
