<svg xmlns="http://www.w3.org/2000/svg" width="162.21" height="100.194" viewBox="0 0 162.21 100.194"><g transform="translate(-905.054 -5211.293)"><g transform="translate(905.054 5211.293)"><path d="M1010.148,48.046c-28.225,2.849-51.383,13.777-67.814,37.306-1.288-1.958-.143-2.582.416-3.259a7.765,7.765,0,0,0,.9-9.523c-2.381-4.163-1.821-8.164.351-12.112,3.012-5.458,7.663-9.218,13.062-12.093a98.777,98.777,0,0,1,33.338-10.486,167.978,167.978,0,0,1,54.518,1.067,105.26,105.26,0,0,1,22.208,6.9,13.382,13.382,0,0,1,4.222,2.413c-.065.67-.507.637-.9.618C1046.309,47.5,1024.225,54.7,1002.862,65c-16.406,7.91-31.289,17.934-43.948,31.133-3.506,3.656-6.089,8.2-10.538,10.935-.846.52-1.529,1.4-3.1,1.366,2.264-4.794,5.542-8.593,8.749-12.424,1.665-1.984,3.461-3.87,5.276-5.718,1.249-1.275,1.763-2.374-.247-3.318-1.685-.787-1.62-1.535-.182-2.628,18.819-14.337,39.153-25.682,62.3-31.425,6.837-1.7,13.771-2.934,20.744-3.962.546-.078,1.275.176,1.542-.644-8.853-2.719-35.563,2.361-54.733,11.468-17.336,8.235-31.907,19.892-44.39,34.4l-.7-.644c.943-1.548,1.8-3.155,2.849-4.632,1.132-1.607,2.4-3.122,3.682-4.612.689-.807,1.633-1.529.345-2.511-2.5-1.906-1.093-3.1.592-4.56,16.256-14.155,35.322-22.585,56.086-27.561A3.965,3.965,0,0,0,1010.148,48.046Z" transform="translate(-941.745 -36.163)" fill="#d5d3d3"/><path d="M1025.456,109.319a154.68,154.68,0,0,1-33.156-4.807c-.6-.15-1.347-.124-1.34-.969s.8-1.164,1.405-1.529c5.783-3.454,11.488-7.038,17.381-10.291,19.528-10.779,40.012-18.968,62.174-22.494,6.492-1.034,13.016-1.334,19.476.241a22.078,22.078,0,0,1,4.931,1.808c6.037,3.148,6.908,8.619,2.134,13.439a34.491,34.491,0,0,1-13.452,8.131c-11.709,4.092-23.639,6.186-36.024,3.617-2.173-.449-4.254-.976-5.041-3.493-.813-2.589.833-4.053,2.361-5.633a5.871,5.871,0,0,0,2.16-3.174c-3.3,1.529-6.381,2.674-8.294,5.562-2.465,3.721-.709,8.515,3.851,10.388a44.481,44.481,0,0,0,14.864,2.953,71.273,71.273,0,0,0,15.937-1.36c.807-.143,1.646-.67,2.257.65a142.482,142.482,0,0,1-51.025,6.98C1025.859,109.013,1025.664,109.007,1025.456,109.319Z" transform="translate(-958.946 -47.42)" fill="#d5d3d3"/><path d="M984.942,161.07A4.275,4.275,0,0,1,988.9,164.8a3.842,3.842,0,0,1-2.173,4.378c-1.457.839-1.438,1.912-.41,3.051,1.386,1.535,2.83,3.018,4.261,4.514.475.494,1.294.82.709,1.75a1.765,1.765,0,0,1-1.834.787c-2.973-.124-8.866-4.885-9.705-7.988-.481-1.782,1.184-1.633,2.049-2.075a3.32,3.32,0,0,0,2-3.213,2.775,2.775,0,0,0-1.841-2.628c-2.166-1-3.389-.26-3.389,2.114,0,3.623-.013,7.253.117,10.87.072,2-.559,3.252-2.693,3.311-2.257.065-2.726-1.379-2.719-3.278.026-4.456.052-8.912-.026-13.368-.033-1.782.729-2.426,2.42-2.342,2.895.15,5.8.241,8.7.358C984.526,161.382,984.727,161.408,984.942,161.07Z" transform="translate(-952.752 -79.682)" fill="#d5d3d3"/><path d="M1012.562,179.559a12.279,12.279,0,0,1-8.9-2.543,9.017,9.017,0,0,1-2.992-10.037c1.347-3.766,5.119-6.1,9.2-6.316,1.912-.1,3.74-.716,5.711-.091,5.074,1.6,8.073,5.588,7.617,10.33-.429,4.469-4.547,8.2-9.575,8.658A5.7,5.7,0,0,1,1012.562,179.559Zm5.5-9.666c-.033-4.2-2.355-7.364-5.679-7.734-2.96-.332-5.659,1.73-6.544,5-1.177,4.339.52,8.775,3.864,10.083C1014.064,178.941,1018.1,175.4,1018.058,169.893Z" transform="translate(-962.165 -79.548)" fill="#d5d3d3"/><path d="M957.754,161.109c3.1.423,4.911,2.147,4.9,5.315-.007,2.732-1.646,4.345-4.209,5.067a1.977,1.977,0,0,1-2.29-.416c-.722-.937.527-1.028.826-1.516a4.6,4.6,0,0,0,.241-4.976,3.262,3.262,0,0,0-3.773-1.483c-1.568.338-1.2,1.665-1.184,2.778.052,3.825.065,7.65.156,11.475.032,1.327-.286,2.316-1.789,2.309-1.418-.007-3.357.169-3.4-1.782-.13-5.464.046-10.935.13-16.405,0-.111.312-.221.481-.332.286.319.455.169.585-.143a37.374,37.374,0,0,1,8.736.059C957.331,161.408,957.526,161.447,957.754,161.109Z" transform="translate(-943.647 -79.714)" fill="#d5d3d3"/><path d="M1158.58,92.742c1.542-2.134,3.87-3.259,5.9-4.749a29.873,29.873,0,0,0,8.613-9.237c3.545-6.225,2.5-11.351-3.148-15.833-.637-.507-2.088-.722-1.5-1.951.657-1.379,1.776-.423,2.641-.085,8.775,3.428,11.188,11.319,5.815,18.923C1172.312,86.3,1165.9,90.159,1158.58,92.742Z" transform="translate(-1017.53 -44.581)" fill="#d5d3d3"/><path d="M1160.114,161c5.152,2.465,7.409,6.655,6.18,11.488-1.171,4.586-6.57,7.754-12.281,7.214-5.015-.481-9.062-4.215-9.478-8.762-.468-5.041,2.543-8.925,8.131-10.5.052.833.611,1.08,1.327,1.138-.82.416-1.685.768-2.459,1.255-3.3,2.088-4.488,7.188-2.635,11.117,1.639,3.48,5.614,4.976,9.517,3.591,3.487-1.242,5.432-5.373,4.586-9.478a9.185,9.185,0,0,0-4.15-5.893C1159.268,161.78,1159.691,161.39,1160.114,161Z" transform="translate(-1012.604 -79.599)" fill="#d5d3d3"/><path d="M1126.613,179.635c-1.431-.2-2.875-.351-4.3-.6-.93-.156-1.529-.735-1.307-1.743.319-1.457,1.216-.644,1.893-.377a10.426,10.426,0,0,0,5.783.7,2.99,2.99,0,0,0,2.706-2.589,2.9,2.9,0,0,0-1.717-3.318c-1.756-.872-3.578-1.626-5.314-2.537a4.5,4.5,0,0,1-2.479-4.911c.247-2.173,1.613-3.187,3.539-3.838,2.153-.729,4.313-.351,6.472-.221.917.059,1.607.644,1.334,1.678-.332,1.275-1.19.768-1.958.442a3.28,3.28,0,0,0-1.151-.429c-1.8.02-4.014-.67-4.911,1.555-1.028,2.563,1.386,3.044,2.908,3.929a30.71,30.71,0,0,0,2.836,1.249c2.576,1.164,4.332,2.934,3.89,5.991s-2.7,4.248-5.412,4.762a15.354,15.354,0,0,1-2.791.026A1.636,1.636,0,0,0,1126.613,179.635Z" transform="translate(-1004.381 -79.442)" fill="#d5d3d3"/><path d="M1095.337,178.444c1.8.208,2-.943,2-2.316-.026-4.131.1-8.268-.111-12.385-.13-2.537.846-3.389,3.22-3.161,2.654.26,5.354-.364,7.988.364-1.815.02-3.636.013-5.451.065-.7.02-1.639.007-.807,1.151-1.984,1.138-2.14,2.966-1.587,4.853.611,2.095,2.459,1.392,3.929,1.438.416.013.833-.052,1.243-.02.761.059,1.945-.3,1.9.917-.046,1.073-1.171.891-1.984.95-4.723.345-5.809,1.353-5.308,4.762.247,1.685,1.015,2.654,2.83,2.6,1.034-.033,2.069,0,3.1.007a6.98,6.98,0,0,1,2.771.384c-4.625,2.517-9.51,1.678-14.389.989C1094.895,178.84,1095.116,178.639,1095.337,178.444Z" transform="translate(-995.196 -79.635)" fill="#d5d3d3"/><path d="M1046.993,179.263c-6.505-1.7-9.757-6.2-8.372-11.579,1.464-5.679,7.721-9.068,14.1-7.565.677.156,1.229.585,2.03.4.878-.2,1.769,0,1.555,1.229-.234,1.327-1.177.807-1.925.585-2.713-.8-5.516-1.067-8.1.1a7.434,7.434,0,0,0-4.618,7.461,7.812,7.812,0,0,0,4.957,7.279c.748.338,1.535.6,2.3.891C1048.267,178.469,1047.63,178.866,1046.993,179.263Z" transform="translate(-975.493 -79.362)" fill="#d5d3d3"/><path d="M1089.9,178.735c-.221.2-.442.4-.664.592-3.435-.293-8.951-4.651-9.992-7.9-.475-1.477.514-1.893,1.62-1.958a4,4,0,0,0,4.046-3.174c.488-2.036-1.171-2.869-2.582-3.747.651-.39,1.294-.781,1.945-1.164,2.01.514,3.636,1.405,3.831,3.779a4.373,4.373,0,0,1-3.116,4.755c-1.763.67-1.841,1.425-.774,2.817A36.8,36.8,0,0,0,1089.9,178.735Z" transform="translate(-989.759 -79.927)" fill="#d5d3d3"/><path d="M1073.352,161.151c1.041-.039,2.082-.072,3.116-.111.02.488.039.976.052,1.464-1.412,2.335-.26,4.931-.761,7.357-.072.059-.215.137-.208.163a3.619,3.619,0,0,0,.215.416q.039,4.059.071,8.125c-.084.046-.234.1-.234.137a2.308,2.308,0,0,0,.137.442c-.761.963-1.581.709-2.413.1-.176-.228-.358-.455-.533-.683q-.01-8.108-.013-16.223A1.2,1.2,0,0,0,1073.352,161.151Z" transform="translate(-987.542 -79.808)" fill="#d5d3d3"/><path d="M1058.32,183.28c2.413-.475,3.317-2.036,3.155-4.365.085-.059.241-.143.234-.163a2.6,2.6,0,0,0-.228-.442c-.013-1.041-.02-2.088-.033-3.129.2-.2.41-.4.611-.6.416-.013.839-.02,1.255-.033.13.332.3.462.585.143a14.293,14.293,0,0,1,.481,7.364c-.3,1.971-2.453,2.173-4.209,2.381C1059.556,184.054,1058.938,183.663,1058.32,183.28Z" transform="translate(-982.488 -84.53)" fill="#d5d3d3"/><path d="M1164.508,160.811c-.423.39-.846.781-1.269,1.164a15.292,15.292,0,0,0-4.853-.6c-.716-.059-1.275-.306-1.327-1.138A11.667,11.667,0,0,1,1164.508,160.811Z" transform="translate(-1016.999 -79.41)" fill="#d5d3d3"/><path d="M1106.027,162.386c-.826-1.145.117-1.132.807-1.151,1.815-.052,3.636-.046,5.451-.065,1.06,1.151.449,1.412-.729,1.379Q1108.785,162.461,1106.027,162.386Z" transform="translate(-999.05 -79.854)" fill="#d5d3d3"/><path d="M1078.512,162.415c-.02-.488-.039-.976-.052-1.464a15.342,15.342,0,0,1,5.581.221c-.65.39-1.294.781-1.945,1.164Z" transform="translate(-989.527 -79.72)" fill="#d5d3d3"/><path d="M1073.331,161.21a1.22,1.22,0,0,1-.566,1.2C1072.714,161.893,1072.57,161.34,1073.331,161.21Z" transform="translate(-987.521 -79.868)" fill="#d5d3d3"/><path d="M1043.99,131.2q.312-.468.585.02l-.293.059Z" transform="translate(-977.48 -69.298)" fill="#d5d3d3"/><path d="M948.775,161.12c-.13.312-.3.462-.585.143C948.385,161.218,948.58,161.172,948.775,161.12Z" transform="translate(-943.998 -79.836)" fill="#d5d3d3"/><path d="M963.115,161.241c-.221.345-.416.3-.585-.046A.687.687,0,0,1,963.115,161.241Z" transform="translate(-949.009 -79.847)" fill="#d5d3d3"/><path d="M990.912,161.24c-.215.338-.41.312-.592-.026A.751.751,0,0,1,990.912,161.24Z" transform="translate(-958.722 -79.852)" fill="#d5d3d3"/><path d="M1063.741,174.6c-.2.2-.41.4-.611.6C1063.13,174.788,1063.325,174.58,1063.741,174.6Z" transform="translate(-984.17 -84.547)" fill="#d5d3d3"/><path d="M1066.585,174.693c-.286.319-.462.189-.585-.143C1066.2,174.6,1066.39,174.648,1066.585,174.693Z" transform="translate(-985.173 -84.53)" fill="#d5d3d3"/><path d="M1077.265,175.179a2.521,2.521,0,0,1-.215-.416c-.006-.026.137-.111.208-.163A.717.717,0,0,1,1077.265,175.179Z" transform="translate(-989.035 -84.548)" fill="#d5d3d3"/></g></g></svg>
