<svg xmlns="http://www.w3.org/2000/svg" width="278.387" height="76.056" viewBox="0 0 278.387 76.056"><g transform="translate(-1144.686 -5231.599)"><g transform="translate(1144.686 5231.599)"><path d="M1613.683,143.436c3.858-11.189,7.578-22.234,12.08-32.993.358-.859-.065-1.119-.611-1.49q-7.679-5.279-15.339-10.584c-.234-.163-.462-.351-.833-.631,3.409-1.457,6.811-2.563,10.206-3.675,5.3-1.737,10.675-3.194,16.106-4.436a3.711,3.711,0,0,0,2.5-1.756,167.449,167.449,0,0,1,14.337-19.307c.312-.358.644-.7,1.093-1.184,2.16,5.484,4.241,10.8,6.355,16.1.319.794-.273,1.067-.651,1.457q-9.182,9.513-17.531,19.762a355.042,355.042,0,0,0-26.625,37.566C1614.535,142.662,1614.425,143.189,1613.683,143.436Z" transform="translate(-1414.579 -67.38)" fill="#d5d3d3"/><path d="M1631.16,142.727c4.586-6.765,9.569-13.231,14.688-19.586A328.457,328.457,0,0,1,1670.274,96a3.019,3.019,0,0,1,2.16-.95c9.237-.507,18.481-.546,27.724-.247.182.007.364.026.559.039.02.533-.423.527-.683.67a381.945,381.945,0,0,0-67.8,46.881c-.254.221-.547.4-.826.6C1631.329,142.9,1631.245,142.812,1631.16,142.727Z" transform="translate(-1422.331 -76.897)" fill="#d5d3d3"/><path d="M1695.177,161.775c-10.857-6.947-21.583-13.66-32.427-20.172.072-.566.559-.7.885-.943q10.275-7.572,20.965-14.539c.566-.371,1.015-.963,1.353.325,3.018,11.579,6.1,23.138,9.165,34.7A3.622,3.622,0,0,1,1695.177,161.775Z" transform="translate(-1433.372 -87.748)" fill="#d5d3d3"/><path d="M1410.138,125.62c3.78-3.87,9.764-3.714,10.837.462a7.372,7.372,0,0,1,6.733-3.226c2.914.234,4.293,1.685,4.033,4.592A78.941,78.941,0,0,1,1430,136.2c-.579,2.83-1.229,5.64-1.75,8.476-.163.885-.533,1.1-1.353,1.067a42.191,42.191,0,0,0-4.254.006c-1.067.059-1.32-.221-1.08-1.3.989-4.384,1.906-8.782,2.81-13.186.234-1.145.878-2.491-.722-3.181-1.19-.514-2.81.507-3.272,2.238-.735,2.732-1.268,5.516-1.867,8.287-.436,2.01-.878,4.014-1.242,6.037-.15.826-.462,1.158-1.34,1.112-1.516-.072-3.038-.072-4.547,0-.95.046-1.015-.3-.839-1.106.943-4.293,1.841-8.6,2.758-12.9.091-.429.182-.859.26-1.294.163-.891.293-1.841-.709-2.309a2.22,2.22,0,0,0-2.635.742,4.907,4.907,0,0,0-1.145,2.5c-.93,4.4-1.893,8.788-2.778,13.2-.182.891-.507,1.216-1.438,1.164-1.464-.085-2.934-.052-4.4-.007-.813.026-1.132-.117-.93-1.06q2.205-10.167,4.319-20.36a.989.989,0,0,1,1.2-.924,38.319,38.319,0,0,0,3.962,0c1.125-.072,1.7.156,1.223,1.405A4.177,4.177,0,0,0,1410.138,125.62Z" transform="translate(-1341.354 -86.76)" fill="#d5d3d3"/><path d="M1322.684,112.85c1.906,0,3.818-.1,5.718.026,3.513.241,5.5,2.394,5.627,5.907.247,6.973-4.28,11.787-11.228,11.917-3.461.065-3.461.072-4.189,3.519-.488,2.29-1.041,4.573-1.438,6.876-.162.969-.579,1.164-1.451,1.132-1.561-.059-3.129-.033-4.69-.006-.69.013-1.047-.013-.852-.943q2.957-13.748,5.8-27.509a1.066,1.066,0,0,1,1.275-1.008c1.808.059,3.617.02,5.425.02Zm-.7,12.756a13.48,13.48,0,0,0,1.457-.143c2.049-.4,3.526-2.882,3.246-5.412-.182-1.646-1.255-2.257-3.662-2.212-.722.013-1.021.234-1.151.943-.325,1.776-.644,3.558-1.132,5.289C1320.375,125.366,1320.648,125.841,1321.988,125.606Z" transform="translate(-1310.129 -83.24)" fill="#d5d3d3"/><path d="M1388.558,130.011a30.155,30.155,0,0,1-2.563,10.3,10.95,10.95,0,0,1-14.09,5.25,4.365,4.365,0,0,1-2.934-3.727c-.423-5.607.6-10.954,3.975-15.54,2.576-3.5,8.99-4.632,12.893-2.615C1387.823,124.7,1388.675,126.524,1388.558,130.011Zm-13.114,8.9c.072,1.334-.13,2.563,1.288,2.888a2.315,2.315,0,0,0,2.784-1.613,35.445,35.445,0,0,0,2.426-11.091,1.6,1.6,0,0,0-.956-1.808,2.184,2.184,0,0,0-2.309.494,4.3,4.3,0,0,0-1.041,1.574A40.773,40.773,0,0,0,1375.444,138.909Z" transform="translate(-1330.663 -86.707)" fill="#d5d3d3"/><path d="M1561.185,143.361a7.582,7.582,0,0,1-6.908,2.856c-2.452-.306-3.636-1.646-3.688-4.111-.1-4.859,2.316-8.086,7-9.3,1.516-.39,3.031-.748,4.547-1.145a2.155,2.155,0,0,0,1.7-1.457c.293-.982.722-2.03-.4-2.778-.859-.566-2.8-.247-3.109.787-.774,2.628-2.745,2.023-4.534,2.036-2.667.02-2.687-.02-1.561-2.485a7.558,7.558,0,0,1,5.022-4.384,16.1,16.1,0,0,1,7.708-.228c2.667.553,3.962,2.342,3.467,5.041-.878,4.755-1.912,9.484-2.875,14.226a9.808,9.808,0,0,0-.189,1.3c-.117,1.991-.1,1.991-2.186,1.991h-2.056C1560.567,145.729,1561.178,145.787,1561.185,143.361Zm1.776-8.73c-1.626.969-3.344,1-4.521,2.186a3.94,3.94,0,0,0-.982,3.936c.2.794.9.956,1.646.878a3.165,3.165,0,0,0,2.836-2.576C1562.31,137.715,1562.57,136.342,1562.961,134.631Z" transform="translate(-1394.17 -86.748)" fill="#d5d3d3"/><path d="M1463.469,135.616c-1.47,0-2.94.059-4.4-.02-.878-.046-1.216.273-1.327,1.106a20.584,20.584,0,0,0-.436,3.337c.02.82.111,1.613,1.009,1.925a2.256,2.256,0,0,0,2.439-.559,4.461,4.461,0,0,0,1.217-2.309c.2-.917.683-1.138,1.548-1.093,1.321.065,2.641.033,3.961.006.7-.013,1.054,0,.793.943-1.633,6.037-9.159,9.341-14.668,6.381a4.741,4.741,0,0,1-2.628-4.144,24.384,24.384,0,0,1,3.188-13.934c2.485-4.131,8.944-5.822,13.3-3.708a4.52,4.52,0,0,1,2.589,3.662c.371,2.622-.208,5.152-.67,7.7-.124.677-.533.7-1.06.7C1466.7,135.6,1465.082,135.616,1463.469,135.616Zm-2.186-3.909c2.628,0,2.693-.052,2.726-2.634.013-.794-.039-1.646-.9-2.01a2.374,2.374,0,0,0-2.368.338,3.7,3.7,0,0,0-1.19,1.639C1458.427,131.642,1458.473,131.707,1461.283,131.707Z" transform="translate(-1359.343 -86.693)" fill="#d5d3d3"/><path d="M1539.135,136.689a10.569,10.569,0,0,1-14.493,8.97,4.718,4.718,0,0,1-3.318-4.261,23.9,23.9,0,0,1,3.129-14.083c2.517-4.235,9.113-5.92,13.55-3.7,2.121,1.06,2.947,3.174,2.635,6.31-.137,1.405-.6,2.075-2.147,1.873a21.91,21.91,0,0,0-3.519-.02c-.67.02-.859-.2-.729-.859a8.384,8.384,0,0,0,.169-1.886,1.683,1.683,0,0,0-1.08-1.75,2.167,2.167,0,0,0-2.2.423,5.574,5.574,0,0,0-1.535,2.628,43.166,43.166,0,0,0-1.808,8.593c-.111,1.093-.3,2.361,1.125,2.849,1.243.429,2.433-.293,3.122-1.789a10,10,0,0,0,.371-.956c.833-2.452.826-2.459,3.37-2.452q1.542,0,3.083.02A.68.68,0,0,1,1539.135,136.689Z" transform="translate(-1383.92 -86.692)" fill="#d5d3d3"/><path d="M1335.372,78.41c2.439,1.008,3.168,2.251,2.862,4.742a7.82,7.82,0,0,1-7.754,7.194c-2.491.091-4.989.007-7.481.059-.891.02-1.086-.28-.911-1.106q2.225-10.382,4.4-20.783c.143-.683.449-.852,1.093-.846,2.641.039,5.282-.046,7.923.065,3.188.137,4.593,1.854,4.209,5.009A6.589,6.589,0,0,1,1335.372,78.41Zm-5.328,1.776c-1.021-.247-1.626.215-1.75,1.457a23.809,23.809,0,0,1-.527,2.576c-.631,2.973-.045,3.48,2.973,2.569a4.392,4.392,0,0,0,2.752-4.664C1333.3,80.751,1332.451,80.244,1330.044,80.185Zm.507-3.194c2.752-.085,3.955-.982,4.384-3.168.306-1.568-.2-2.374-1.672-2.687-2.231-.468-2.635-.254-3.025,1.587-.215,1-.351,2.03-.663,3.005C1329.218,76.881,1329.654,77.161,1330.552,76.992Z" transform="translate(-1314.288 -67.481)" fill="#d5d3d3"/><path d="M1355.475,125.714c.709-.046.9-.637,1.295-.976a7.442,7.442,0,0,1,2.472-1.548c.976-.332,2.179-.794,2.953-.189.651.507-.182,1.6-.247,2.446a3.313,3.313,0,0,1-.084.429,8.252,8.252,0,0,1-.67,2.83c-.585.872-1.776.15-2.7.3-2.433.39-3.805,1.5-4.352,3.916-.872,3.864-1.7,7.734-2.472,11.618-.176.9-.494,1.223-1.418,1.177a43.236,43.236,0,0,0-4.4,0c-1.008.052-1.08-.26-.885-1.164q2.176-10.031,4.241-20.081c.169-.807.449-1.164,1.34-1.106a25.982,25.982,0,0,0,3.962-.007c1.32-.117,1.47.423,1.1,1.47C1355.521,125.07,1355.241,125.3,1355.475,125.714Z" transform="translate(-1322.274 -86.717)" fill="#d5d3d3"/><path d="M1490.582,125.748c.677.078.878-.546,1.236-.885a6.931,6.931,0,0,1,4.879-2.023c.716-.007.95.189.774.943-.364,1.516-.663,3.051-.956,4.579-.13.664-.423.774-1.1.729-3.91-.247-5.542,1-6.375,4.833-.755,3.48-1.516,6.967-2.166,10.466-.2,1.086-.631,1.451-1.717,1.373a34.561,34.561,0,0,0-4.1-.007c-.9.039-1.184-.137-.969-1.132,1.464-6.72,2.862-13.452,4.267-20.191.15-.722.423-1.08,1.242-1.034a26.755,26.755,0,0,0,3.955-.007c1.366-.124,1.607.384,1.19,1.555C1490.647,125.175,1490.374,125.429,1490.582,125.748Z" transform="translate(-1369.505 -86.763)" fill="#d5d3d3"/><path d="M1380.078,77.549a6.907,6.907,0,0,1,5.165-1.978c2.094.143,3.148,1.216,3.057,3.311-.117,2.648-.989,5.165-1.477,7.754-.345,1.821-.787,3.63-1.125,5.451-.137.735-.371,1.06-1.2,1.08-3.5.1-3.5.13-2.778-3.265.585-2.771,1.2-5.536,1.75-8.307.169-.872.566-1.886-.553-2.472a2.589,2.589,0,0,0-3.044,1.138,5.716,5.716,0,0,0-.677,1.925c-.69,3.3-1.418,6.59-2.062,9.894-.169.859-.533,1.08-1.366,1.086-3.357.039-3.35.072-2.654-3.187.9-4.2,1.822-8.4,2.641-12.613.215-1.1.664-1.5,1.737-1.353a5.605,5.605,0,0,0,1.321,0C1379.857,75.916,1380.605,76.053,1380.078,77.549Z" transform="translate(-1332.013 -70.237)" fill="#d5d3d3"/><path d="M1357.227,91.524a6.173,6.173,0,0,1-4.879,2.1,3.022,3.022,0,0,1-3.187-3.1,6.423,6.423,0,0,1,4.807-6.98c.93-.293,1.893-.5,2.836-.748a10.875,10.875,0,0,0,1.268-.371,2.364,2.364,0,0,0,1.477-2.6,1.139,1.139,0,0,0-1.086-1.164,2.479,2.479,0,0,0-2.641,1.164c-.306.468-.117,1.334-.833,1.418a15.135,15.135,0,0,1-3.07.007c-.742-.065-.377-.7-.273-1.034a6.026,6.026,0,0,1,4.645-4.41,10.725,10.725,0,0,1,4.222-.137c2.862.455,3.857,1.834,3.3,4.723-.572,2.973-1.242,5.926-1.854,8.892a11.7,11.7,0,0,0-.429,3.038c.013.228.143.566-.13.663a11.223,11.223,0,0,1-2.6.156C1357.819,93.261,1357.149,93.04,1357.227,91.524Zm1.47-6.791c-1.386.494-2.472.787-3.48,1.268a3.369,3.369,0,0,0-1.633,3.617,1.161,1.161,0,0,0,1.125.969,3.3,3.3,0,0,0,3.148-2.212C1358.2,87.27,1358.385,86.118,1358.7,84.733Z" transform="translate(-1323.765 -70.227)" fill="#d5d3d3"/><path d="M1420.529,88.018a22.2,22.2,0,0,1,2.036-8.105,7.912,7.912,0,0,1,9.64-4.111,3.576,3.576,0,0,1,2.732,3.279,18.02,18.02,0,0,1-2.687,11.338c-1.815,2.869-6.141,4.02-9.283,2.713C1420.841,92.24,1420.5,90.412,1420.529,88.018Zm10.122-6.954c-.13-.911.2-2.082-1.106-2.413a2.356,2.356,0,0,0-2.752,1.431,1.2,1.2,0,0,0-.065.13,24.222,24.222,0,0,0-1.815,8.535,1.557,1.557,0,0,0,.943,1.665,1.96,1.96,0,0,0,2.049-.39,3.656,3.656,0,0,0,1.06-1.555A26.843,26.843,0,0,0,1430.651,81.064Z" transform="translate(-1348.714 -70.188)" fill="#d5d3d3"/><path d="M1511.744,123.661c.878.1,2.342-.481,2.908.228.553.69-.208,2.017-.429,3.057-1.236,5.926-2.531,11.839-3.727,17.772-.215,1.054-.611,1.347-1.633,1.288-1.464-.091-2.934-.052-4.4-.013-.742.02-.93-.228-.781-.943q2.215-10.3,4.378-20.627c.13-.631.436-.787,1-.768C1509.9,123.68,1510.736,123.661,1511.744,123.661Z" transform="translate(-1377.761 -87.005)" fill="#d5d3d3"/><path d="M1409.87,82.191a8.223,8.223,0,0,0-1,.007c-.872.111-1.21-.111-1.008-1.106.176-.846.182-1.86-.911-2.205a2.073,2.073,0,0,0-2.55.95,17.569,17.569,0,0,0-2.108,9.445c.058,1.366,1.828,1.737,2.96.709a4.1,4.1,0,0,0,1.2-2.3c.176-.924.624-1.249,1.5-1.119a3.344,3.344,0,0,0,.442,0c2.966,0,2.966,0,1.737,2.687a7.827,7.827,0,0,1-9.9,3.9,3.477,3.477,0,0,1-2.3-3.135,17.4,17.4,0,0,1,2.752-11.312,7.682,7.682,0,0,1,8.45-2.914A4.627,4.627,0,0,1,1412,81.729C1411.529,82.75,1410.482,81.911,1409.87,82.191Z" transform="translate(-1340.8 -70.215)" fill="#d5d3d3"/><path d="M1511.51,117.255c.371-1.711.26-3.649,1.171-4.742s2.921-.306,4.443-.364c2.121-.085,2.121-.02,1.665,2.147-.625,2.96-.625,2.96-3.7,2.96Z" transform="translate(-1380.513 -82.948)" fill="#d5d3d3"/><path d="M1631.263,168.834c-.13.234-.306.338-.533.137a3.586,3.586,0,0,1,.273-.39C1631.094,168.665,1631.179,168.749,1631.263,168.834Z" transform="translate(-1422.18 -102.75)" fill="#d5d3d3"/></g></g></svg>
