<svg xmlns="http://www.w3.org/2000/svg" xmlns:xlink="http://www.w3.org/1999/xlink" width="92.4" height="93.641" viewBox="0 0 92.4 93.641"><defs><radialGradient id="a" cx="0.5" cy="0.5" r="0.647" gradientTransform="translate(0.174) scale(0.653 1)" gradientUnits="objectBoundingBox"><stop offset="0.165" stop-color="#e42917"/><stop offset="0.751" stop-color="#c51618"/></radialGradient><radialGradient id="b" cx="0.5" cy="0.5" r="0.499" gradientTransform="translate(-0.001)" xlink:href="#a"/><radialGradient id="c" cx="0.5" cy="0.5" r="0.451" gradientTransform="translate(-0.131) scale(1.263 1)" xlink:href="#a"/></defs><g transform="translate(-595 -1007)"><path d="M105.79,108.89c-1.67-3.22-3.22-6.2-4.74-9.16.39-.39.61-.12.84-.01a12.643,12.643,0,0,0,3.27,1.17,5.83,5.83,0,0,0,6.64-4.07c.86-2.41,1.59-4.86,2.37-7.3a1.522,1.522,0,0,1,.59-1.04c.47,1.07.95,2.1,1.38,3.15q5.64,13.56,11.26,27.14c1.81,4.39.85,8.23-2.42,11.84-1.99,2.2-4.88,2.25-7.64,1.63-5.81-1.31-11.59-2.72-17.39-4.09-1.96-.46-1.96-.47-1.96,1.53V147.2c0,1.57-.04,1.61-1.62,1.61H47.77a1.932,1.932,0,0,1-1.74-.55,79.1,79.1,0,0,1-8.72-12.74,10.467,10.467,0,0,1-.22-10.08,59.088,59.088,0,0,1,13.44-18.66,25.911,25.911,0,0,1,13.38-6.03c8.48-1.45,16.71-.12,24.82,2.36,5.36,1.63,10.64,3.49,15.88,5.44A10.235,10.235,0,0,0,105.79,108.89Zm-49.7,16.04c-1.55,1.66-3.06,3.28-4.57,4.9-.34.37-.1.65.16.92q1.92,2.055,3.85,4.1c.18.19.34.53.66.39s.19-.5.19-.76c.01-2.63.02-5.27,0-7.9A2.229,2.229,0,0,0,56.09,124.93Z" transform="translate(559.096 951.83)" fill="url(#a)"/><path d="M60.67,76.6A21.34,21.34,0,1,1,82.05,97.94,21.31,21.31,0,0,1,60.67,76.6Z" transform="translate(559.096 951.83)" fill="url(#b)"/><path d="M106.38,99.55a3.968,3.968,0,0,1-.72-.12c-2.64-.9-5.28-1.82-7.93-2.73-.76-.26-.86-.63-.23-1.16.03-.03.06-.05.09-.08,1.3-1.85,2.91-2.19,4.94-1.16a28.071,28.071,0,0,0,3.16,1.1c.64.23,1.04.14,1.28-.58,1.17-3.48,2.37-6.96,3.57-10.43.23-.66.09-1.04-.59-1.28-1.09-.38-2.15-.87-3.25-1.23-.91-.3-1.36-.79-1.04-1.78a3.549,3.549,0,0,0,.09-.47c.34-2.41.33-2.39,2.62-1.42,1.4.59,2.83,1.09,4.22,1.69a3.011,3.011,0,0,1,1.73,3.76q-1.92,6.42-3.92,12.83A4.456,4.456,0,0,1,106.38,99.55Z" transform="translate(559.096 951.83)" fill="url(#c)"/></g></svg>
