<svg xmlns="http://www.w3.org/2000/svg" width="141.327" height="117.308" viewBox="0 0 141.327 117.308"><g transform="translate(-1472.673 -5198.759)"><g transform="translate(1472.673 5198.759)"><path d="M1896.72,59.779c5.113-.592,10.011-1.581,14.454-4.137,4.378-2.524,6.993-6.167,7-11.41.007-5.419-2.524-9.257-7.559-11.319a22.52,22.52,0,0,0-8.4-1.574c-3.506-.033-7.012.085-10.512-.02-1.581-.046-2,.436-1.984,2.01.085,7.487.032,14.974.032,22.462v2.784a161.642,161.642,0,0,0-16.373-2.927c-1.041-.1-.982-.846-.982-1.574-.007-11.872.006-23.737-.052-35.608-.006-1.36.566-1.535,1.711-1.529,12.587.033,25.174-.156,37.761.072,12.626.234,23.268,9.341,24.524,20.939,1.021,9.406-2.739,16.744-10.662,21.928-.651.429-1.353.781-2.335,1.347,10.792,3.883,17.238,10.935,18.11,23C1929.3,70.427,1913.5,64.215,1896.72,59.779Z" transform="translate(-1834.611 -16.894)" fill="#d5d3d3"/><path d="M1825.17,95.069c4.761-1.047,9.458-1.574,14.135-2.173a157.092,157.092,0,0,1,29.1-.9c12.932.761,25.688,2.674,37.313,8.944,5.841,3.148,10.876,7.253,13.751,13.478a16.632,16.632,0,0,1,1.067,11.416c-.2.742-.384,1.626-1.294,1.867-.839.221-1.353-.377-1.763-.969-7.136-10.245-17.466-16.08-28.661-20.66-11.865-4.859-24.3-7.468-36.994-8.964a197.369,197.369,0,0,0-25.018-1.49C1826.3,95.629,1825.7,95.824,1825.17,95.069Z" transform="translate(-1818.125 -43.039)" fill="#d5d3d3"/><path d="M1852,118.82c17.323-1.21,34.385-2.472,50.94,3.617,6.1,2.244,11.592,5.321,14.961,11.234a20.938,20.938,0,0,1,2.817,8.313,6.762,6.762,0,0,1-.586,3.968c-.651,1.2-1.548,1.561-2.687.494-17.661-16.562-39.68-22.9-62.753-26.794A4.472,4.472,0,0,1,1852,118.82Z" transform="translate(-1827.502 -52.167)" fill="#d5d3d3"/><g transform="translate(0 103.413)"><path d="M1814.34,176.05h2.81v13.615h-2.81Zm1.229,11.143h4.762a2.329,2.329,0,0,0,1.5-.429,1.451,1.451,0,0,0,.527-1.19v-.026a1.58,1.58,0,0,0-.234-.878,1.51,1.51,0,0,0-.7-.559,2.784,2.784,0,0,0-1.093-.189h-4.762v-2.472h4.762a2.029,2.029,0,0,0,1.347-.4,1.392,1.392,0,0,0,.475-1.132,1.216,1.216,0,0,0-.475-1.021,2.2,2.2,0,0,0-1.347-.364h-4.762v-2.472h4.853a6.271,6.271,0,0,1,2.472.436,3.375,3.375,0,0,1,1.561,1.262,3.583,3.583,0,0,1,.533,1.991,2.854,2.854,0,0,1-.345,1.412,2.705,2.705,0,0,1-1,1.008,4.276,4.276,0,0,1-1.581.533,4.357,4.357,0,0,1,1.691.546,2.867,2.867,0,0,1,1.067,1.112,3.335,3.335,0,0,1,.364,1.581v.026a3.615,3.615,0,0,1-.54,2,3.4,3.4,0,0,1-1.568,1.268,6.326,6.326,0,0,1-2.479.436h-5.028Z" transform="translate(-1814.34 -175.933)" fill="#d5d3d3"/><path d="M1838.228,176.05h1.789l5.7,13.615H1842.7l-3.571-9.3-3.571,9.3h-3.025Zm-2.966,8.964h7.851v2.472h-7.851Z" transform="translate(-1820.697 -175.933)" fill="#d5d3d3"/><path d="M1855.65,176.05h3.441l5.555,10.434-.247.241V176.05h2.686v13.6h-3.461l-5.529-10.271.247-.241v10.512h-2.687v-13.6Z" transform="translate(-1828.778 -175.933)" fill="#d5d3d3"/><path d="M1878.27,176.04h2.81v13.621h-2.81Zm1.119,5.672h5.191a1.474,1.474,0,0,0,.761-.2,1.284,1.284,0,0,0,.507-.559,2.02,2.02,0,0,0,.189-.846,1.859,1.859,0,0,0-.182-.846,1.285,1.285,0,0,0-.507-.559,1.48,1.48,0,0,0-.768-.2h-5.191V176.04h5.419a4.476,4.476,0,0,1,2.166.507,3.574,3.574,0,0,1,1.451,1.431,4.713,4.713,0,0,1,0,4.28,3.574,3.574,0,0,1-1.451,1.431,4.469,4.469,0,0,1-2.16.507H1879.4v-2.485Zm3.142,2.049,3.005-.429,4.026,6.329h-3.409Z" transform="translate(-1836.684 -175.929)" fill="#d5d3d3"/><path d="M1899.34,176.05h2.81v13.615h-2.81Zm1.015,0h8.983v2.472h-8.983Zm0,5.62h7.852v2.472h-7.852Zm0,5.523h8.983v2.472h-8.983Z" transform="translate(-1844.048 -175.933)" fill="#d5d3d3"/><path d="M1920.756,189.55a9.4,9.4,0,0,1-1.919-.579,7.809,7.809,0,0,1-1.607-.911l1.3-2.114a6.494,6.494,0,0,0,1.991,1,7.79,7.79,0,0,0,2.322.351,4.458,4.458,0,0,0,2.134-.423,1.322,1.322,0,0,0,.761-1.2v-.007a1.1,1.1,0,0,0-.338-.859,2.023,2.023,0,0,0-.885-.468,12.715,12.715,0,0,0-1.4-.273.18.18,0,0,0-.058-.006.178.178,0,0,1-.058-.007l-.228-.026a14.945,14.945,0,0,1-2.485-.54,3.626,3.626,0,0,1-1.672-1.132,3.47,3.47,0,0,1-.689-2.3v-.007a3.891,3.891,0,0,1,.644-2.257,3.993,3.993,0,0,1,1.88-1.425,8.088,8.088,0,0,1,2.979-.494,8.455,8.455,0,0,1,1.639.169,9.121,9.121,0,0,1,1.639.488,9.469,9.469,0,0,1,1.516.768l-1.19,2.173a7.835,7.835,0,0,0-1.8-.846,5.871,5.871,0,0,0-1.8-.3,4.21,4.21,0,0,0-2,.39,1.2,1.2,0,0,0-.709,1.093v.007a1.205,1.205,0,0,0,.371.93,2.258,2.258,0,0,0,.911.5,15.426,15.426,0,0,0,1.529.338.329.329,0,0,0,.084.013c.026.007.052.007.084.013a.75.75,0,0,1,.117.026c.039.007.078.02.117.026a13.607,13.607,0,0,1,2.368.611,3.65,3.65,0,0,1,1.587,1.158,3.429,3.429,0,0,1,.637,2.186v.02a3.7,3.7,0,0,1-.67,2.231,4.11,4.11,0,0,1-1.945,1.412,8.649,8.649,0,0,1-3.077.488A13.044,13.044,0,0,1,1920.756,189.55Z" transform="translate(-1850.301 -175.87)" fill="#d5d3d3"/><path d="M1938.23,176.05h2.81v13.615h-2.81Zm1.015,0h8.983v2.472h-8.983Zm0,5.62h7.852v2.472h-7.852Zm0,5.523h8.983v2.472h-8.983Z" transform="translate(-1857.64 -175.933)" fill="#d5d3d3"/><path d="M1957.54,176.04h2.81v13.621h-2.81Zm1.119,5.672h5.191a1.473,1.473,0,0,0,.761-.2,1.284,1.284,0,0,0,.507-.559,2.024,2.024,0,0,0,.189-.846,1.858,1.858,0,0,0-.182-.846,1.284,1.284,0,0,0-.507-.559,1.48,1.48,0,0,0-.768-.2h-5.191V176.04h5.419a4.477,4.477,0,0,1,2.166.507,3.518,3.518,0,0,1,1.444,1.431,4.713,4.713,0,0,1,0,4.28,3.573,3.573,0,0,1-1.451,1.431,4.469,4.469,0,0,1-2.16.507h-5.419Zm3.142,2.049,3.005-.429,4.026,6.329h-3.409Z" transform="translate(-1864.389 -175.929)" fill="#d5d3d3"/><path d="M1976.08,176.05h2.895l3.174,9.081,3.174-9.081h2.895l-4.97,13.615h-2.2Z" transform="translate(-1870.869 -175.933)" fill="#d5d3d3"/><path d="M1999.5,176.05h1.789l5.7,13.615h-3.025l-3.571-9.3-3.571,9.3H1993.8Zm-2.966,8.964h7.851v2.472h-7.851Z" transform="translate(-1877.062 -175.933)" fill="#d5d3d3"/><path d="M2017.766,189.55a9.4,9.4,0,0,1-1.919-.579,7.818,7.818,0,0,1-1.607-.911l1.3-2.114a6.493,6.493,0,0,0,1.991,1,7.791,7.791,0,0,0,2.322.351,4.459,4.459,0,0,0,2.134-.423,1.322,1.322,0,0,0,.761-1.2v-.007a1.1,1.1,0,0,0-.338-.859,2.021,2.021,0,0,0-.885-.468,12.712,12.712,0,0,0-1.4-.273.181.181,0,0,0-.058-.006.179.179,0,0,1-.058-.007l-.228-.026a14.944,14.944,0,0,1-2.485-.54,3.624,3.624,0,0,1-1.672-1.132,3.468,3.468,0,0,1-.69-2.3v-.007a3.891,3.891,0,0,1,.644-2.257,3.993,3.993,0,0,1,1.88-1.425,8.089,8.089,0,0,1,2.979-.494,8.45,8.45,0,0,1,1.639.169,9.117,9.117,0,0,1,1.639.488,9.454,9.454,0,0,1,1.516.768l-1.19,2.173a7.837,7.837,0,0,0-1.8-.846,5.87,5.87,0,0,0-1.8-.3,4.209,4.209,0,0,0-2,.39,1.2,1.2,0,0,0-.709,1.093v.007a1.2,1.2,0,0,0,.371.93,2.256,2.256,0,0,0,.911.5,15.418,15.418,0,0,0,1.529.338.33.33,0,0,0,.085.013c.026.007.052.007.085.013a.755.755,0,0,1,.117.026c.039.007.078.02.117.026a13.61,13.61,0,0,1,2.368.611,3.651,3.651,0,0,1,1.587,1.158,3.429,3.429,0,0,1,.637,2.186v.02a3.7,3.7,0,0,1-.67,2.231,4.11,4.11,0,0,1-1.945,1.412,8.651,8.651,0,0,1-3.077.488A12.889,12.889,0,0,1,2017.766,189.55Z" transform="translate(-1884.206 -175.87)" fill="#d5d3d3"/></g></g></g></svg>
