<svg xmlns="http://www.w3.org/2000/svg" xmlns:xlink="http://www.w3.org/1999/xlink" width="200" height="200" viewBox="0 0 200 200">
  <defs>
    <radialGradient id="radial-gradient" cx="0.5" cy="0.5" r="0.633" gradientTransform="translate(0.164) scale(0.673 1)" gradientUnits="objectBoundingBox">
      <stop offset="0.165" stop-color="#e42917"/>
      <stop offset="0.751" stop-color="#c51618"/>
    </radialGradient>
  </defs>
  <g id="transaccion" transform="translate(-1423 -4230)">
    <rect id="Rectángulo_37" data-name="Rectángulo 37" width="200" height="200" transform="translate(1423 4230)" fill="none"/>
    <g id="transaccion-2" data-name="transaccion" transform="translate(1441 4275)">
      <path id="Trazado_141" data-name="Trazado 141" d="M944.712,115.355a11.853,11.853,0,0,0-8.868-8.883,27.628,27.628,0,0,0-7-.762q-41.636.007-83.276,0a29.43,29.43,0,0,0-4.7.241c-4.412.714-8.053,2.585-10.05,6.824a1.464,1.464,0,0,1-1.572.96c-2.459-.034-4.919-.014-7.373-.01a9.7,9.7,0,0,0-3.679.767,50.281,50.281,0,0,0-9.326,5.3c-9.273,6.308-17.833,13.522-26.407,20.717a1.781,1.781,0,0,0-.685,1.509c.029,1.808,0,3.617.014,5.43,0,.3-.125.7.154.863.357.2.617-.178.863-.391,6.206-5.295,12.456-10.532,18.879-15.562a155.342,155.342,0,0,1,15.292-10.98,10.5,10.5,0,0,1,4.576-1.958c2.276-.154,4.572-.043,6.862-.053.53,0,.7.217.67.757-.072,1.36-.111,2.729-.111,4.089q-.022,19.256,0,38.511a2.021,2.021,0,0,1-1.23,2.064c-1.615.878-3.139,1.934-4.668,2.956a2.908,2.908,0,1,0,3.245,4.808,87.212,87.212,0,0,1,13.975-7.479c5.912-2.416,11.737-5.01,17.548-7.643a109.464,109.464,0,0,1,12.678-5.223,17.372,17.372,0,0,1,6.341-.955,5.2,5.2,0,0,1,5.025,3.8,11.394,11.394,0,0,1,.309,5.965c-.863,4.465-2.85,8.111-7.151,10.233-2.816,1.389-5.676,2.686-8.54,3.964a47.334,47.334,0,0,0-14.091,8.965c-2.667,2.59-5.131,5.387-7.942,7.831a69.5,69.5,0,0,1-16.246,10.768,23.648,23.648,0,0,1-10.378,2.348c-11.3-.111-22.6-.043-33.906-.043-.308,0-.617.024-.921,0-.9-.077-1.331.236-1.259,1.215s.015,1.977.015,2.971c0,1.447,0,1.451,1.49,1.451h36.876a11.351,11.351,0,0,0,2.647-.212,48.9,48.9,0,0,0,11.386-4.244c.68-.352.935-.309,1.316.376,2.5,4.465,6.433,6.163,11.41,5.777a20.485,20.485,0,0,0,8.169-2.479.659.659,0,0,1,.974.149,16.844,16.844,0,0,0,3.192,2.864c4.027,2.922,8.372,4.084,13.2,2.17a16.663,16.663,0,0,0,5.488-3.694c1.673-1.63,1.649-1.572,3.675-.516a10.525,10.525,0,0,0,9.081.747,13.138,13.138,0,0,0,6.187-5.459c2.908-4.494,4.311-9.558,5.377-14.723.217-1.056.608-1.3,1.591-1.3,8.569.029,17.138.015,25.708.019a34.817,34.817,0,0,0,3.882-.188c5.439-.608,9.341-3.25,11.2-8.521a18.718,18.718,0,0,0,1.123-6.221q.008-13.165.005-26.325,0-12.9,0-25.814A28.614,28.614,0,0,0,944.712,115.355Zm-88.542,76.1a33.861,33.861,0,0,1-1.76,10.026,6.756,6.756,0,0,1-5.362,4.769,14.9,14.9,0,0,1-3.236.477c-2.218-.053-4.186-.559-5.256-2.8a1.33,1.33,0,0,1,.487-1.914,97.119,97.119,0,0,0,12.871-11.038,1.641,1.641,0,0,1,1.032-.6C855.919,190.269,856.218,190.486,856.17,191.455Zm19.053,14.129c-1.514,2.782-4.147,4.06-7.156,4.586a5.621,5.621,0,0,1-3.906-.921,20.3,20.3,0,0,1-4.461-4.036.892.892,0,0,1-.135-1.032,41.182,41.182,0,0,0,2.426-12.919c.024-.757.415-.9,1.047-.9,2.252.014,4.5,0,6.761,0,2.218,0,4.437,0,6.655,0,.555,0,1.032.063,1.08.772C877.861,196.133,877.678,201.066,875.223,205.585Zm21.416-14.39a26.232,26.232,0,0,1-5.213,12.712c-2.363,3.081-5.295,3.458-8.323,1.1a1.537,1.537,0,0,1-.68-1.741,42.133,42.133,0,0,0,1.1-10.132,15.227,15.227,0,0,0-.145-1.934c-.111-.723.14-.989.868-.979,1.943.029,3.887.01,5.83.01,1.91,0,3.819.014,5.724-.01C896.523,190.211,896.735,190.448,896.639,191.2Zm43-53.108H835.13V123.442h104.5Z" transform="translate(-781.764 -105.71)" fill="url(#radial-gradient)"/>
    </g>
  </g>
</svg>
