<svg xmlns="http://www.w3.org/2000/svg" width="134.973" height="32.328" viewBox="0 0 134.973 32.328"><g transform="translate(-739.442 -1799.35)"><g transform="translate(739.442 1799.35)"><path d="M347.436,105.385c-11.376-2.107-17.511-16.584-9.826-25.668,7.8-11.41,26.73-6.573,28.668,6.961.27,6.219-.017,12.472.067,18.691a9.959,9.959,0,0,1-6.286-1.854c-.994-.927-4.854,1.618-6.539,1.854C351.481,105.385,349.459,105.385,347.436,105.385Zm3.067-5.713c13.7.1,13.5-20.578.067-20.578C336.919,79.025,336.768,99.806,350.5,99.671Z" transform="translate(-231.425 -73.194)" fill="#d5d3d3"/><path d="M297.762,105.336c-12.506-3.017-11.41-25.534-21.741-26.005a2.7,2.7,0,0,1-2.781-2.478,2.838,2.838,0,0,1,2.225-3.169c7.315-1.854,12,5.831,14.528,11.494,2.494,5.545,7.281,20.477,14.494,11.09,4.584-6.657,5.612-15.455,12.1-20.8,1.3-1.011,6.067-3.624,6.168-.624-.169,2.006.742,4.213-1.753,5.157-2.022.893-3.135,2.865-4.1,4.786C312.661,93.033,309.593,106.887,297.762,105.336Z" transform="translate(-273.216 -73.145)" fill="#d5d3d3"/><path d="M329.439,105.335c-11.9-3.489-11.107-22.247-19.871-25.837-1.433-.674-.522-2.781-.775-4.045,0-2.14.219-2.326,2.36-1.8,4.18,1.011,6.59,4.1,8.6,7.567,3.624,4.719,6.826,23.292,15.337,16.517,4.989-5.6,5.9-13.6,10.584-19.466.927-1.786,7.989-7.483,8.107-3.051-.118,2.056.607,4.1-1.786,5.191-2.191,1.213-3.152,3.59-4.112,5.815C344.371,94.38,340.579,106.919,329.439,105.335Z" transform="translate(-248.871 -73.144)" fill="#d5d3d3"/><path d="M306.511,102.638c-.455-5.157-.287-10.315-.3-15.472,0-1.517,0-2.949-1.736-3.624-1.281-1.062-.337-3.32-.624-4.837-.017-1.247.607-1.517,1.736-1.3,10.82,2.393,6.034,17.123,7.011,25.23Z" transform="translate(-252.269 -70.447)" fill="#d5d3d3"/><path d="M306.97,79.486c-4.365.051-3.792-6-.1-6.236C310.341,73.435,311,79.5,306.97,79.486Z" transform="translate(-252.189 -73.25)" fill="#d5d3d3"/></g></g></svg>
